<?xml version="1.0" standalone="no"?>
<!DOCTYPE svg PUBLIC "-//W3C//DTD SVG 1.1//EN" "http://www.w3.org/Graphics/SVG/1.1/DTD/svg11.dtd" >
<svg xmlns="http://www.w3.org/2000/svg" xmlns:xlink="http://www.w3.org/1999/xlink" version="1.1">
<metadata></metadata>
<defs>
<font id="novaresebold" horiz-adv-x="1006" >
<font-face units-per-em="2048" ascent="1637" descent="-411" />
<missing-glyph horiz-adv-x="759" />
<glyph unicode="&#xd;" horiz-adv-x="759" />
<glyph unicode=" "  horiz-adv-x="759" />
<glyph unicode="&#x09;" horiz-adv-x="759" />
<glyph unicode="&#xa0;" horiz-adv-x="759" />
<glyph unicode="!" horiz-adv-x="521" d="M70 174q0 80 48 134q54 61 148 61q95 0 153 -65q51 -58 51 -140q0 -80 -48 -134q-54 -61 -148 -61q-95 0 -152 64q-51 58 -52 141zM111 1618h329l-101 -1127h-142z" />
<glyph unicode="&#x22;" horiz-adv-x="467" d="M56 1586l152 1l-11 -439h-129zM269 1586l151 1l-11 -439h-129z" />
<glyph unicode="#" horiz-adv-x="1312" d="M58 1001l35 83h279l96 222h-278l32 82h280l128 300h135l-124 -300h211l125 300h135l-126 -298h279l-31 -87h-284l-93 -217h283l-40 -85h-280l-128 -297h-135l127 297h-209l-128 -297h-137l127 297h-279zM511 1084h207l96 222h-210z" />
<glyph unicode="$" horiz-adv-x="1183" d="M54 1085q0 165 138 276q129 104 299 103v220h148v-206q49 -4 90.5 -7t89 -11t113.5 -24q54 -13 80 -23q0 -44 0.5 -59t10.5 -119q0 -53 7 -98q12 -60 18 -95h-51q-29 125 -138 193.5t-252 68.5q-128 0 -194.5 -44.5t-66.5 -120.5q0 -91 99 -138q29 -14 201 -59l88 -25 q184 -50 277 -126q120 -98 120 -260q0 -179 -112.5 -280t-348.5 -138v-248h-148v246h-88q-21 2 -35 4q-84 11 -130.5 20t-83 20t-84.5 29q0 56 -1.5 128t-1.5 79l-16 209h43q35 -166 148 -247q104 -74 264 -74q115 0 193 38q100 49 101 146q0 99 -130 154q-11 5 -206 59 l-73 21q-165 47 -258 135q-110 103 -110 253z" />
<glyph unicode="%" horiz-adv-x="1619" d="M63 1253q0 162 114 280t275 118q166 0 288.5 -113t122.5 -275q0 -167 -119.5 -284t-287.5 -117q-161 0 -277 114.5t-116 276.5zM311 1331q0 -38 4 -74q10 -111 45 -180q47 -91 128 -91q13 0 20 1q66 8 96 64q26 49 26 127q0 30 -3 57t-10 62q-21 103 -50 155 q-43 79 -113 79q-13 0 -30 -3q-63 -13 -91 -72q-21 -47 -22 -125zM364 24l809 1624l106 -51l-804 -1628zM769 360q0 164 114 281.5t275 117.5q167 0 288.5 -113.5t121.5 -275.5q0 -166 -119 -284t-288 -118q-160 0 -276 115t-116 277zM1020 364q10 -110 47 -180 q47 -91 126 -91q13 0 21 1q64 10 94 65q25 47 25 123q0 33 -3.5 60t-10.5 63q-21 104 -49 155q-42 79 -111 79q-19 0 -29 -3q-69 -16 -93 -83q-17 -47 -17 -142v-28v-19z" />
<glyph unicode="&#x26;" horiz-adv-x="1803" d="M62 475q0 189 153 310q123 98 291 123q-142 33 -220 108q-92 87 -91 229q0 199 219 312q181 94 415 95q128 0 221 -16t200 -59q0 -42 4 -103t4 -86q0 -41 7.5 -84.5t12.5 -71.5h-69q-39 113 -128.5 172t-214.5 59q-149 0 -231 -66.5t-82 -185.5q0 -115 94 -181 q85 -60 206 -60h52q37 0 63.5 -15t26.5 -44q0 -25 -20.5 -42.5t-48.5 -17.5l-81 -5q-190 0 -302 -85t-112 -237q0 -221 137 -307q86 -54 233 -53q172 0 287 95q123 101 123 265v42h-185q-18 0 -45 -15t-43.5 -35t-26.5 -48.5t-9 -39.5h-59q-1 12 -2 18q0 50 23.5 114t67 110 t141.5 65q66 13 148 13h26t16 -1h241q44 0 77 10t64 37q18 14 30.5 35t25.5 42h52q-13 -61 -32.5 -124t-50.5 -99q-74 -85 -184 -85q0 -319 -230 -472q-191 -128 -506 -128q-274 0 -462 115q-226 138 -226 397z" />
<glyph unicode="'" horiz-adv-x="260" d="M56 1586l152 1l-11 -439h-129z" />
<glyph unicode="(" horiz-adv-x="664" d="M62 650q0 362 113 609q132 289 409 395l26 -36q-98 -67 -144.5 -164.5t-60.5 -238.5t-14 -396q0 -320 8 -457q13 -257 57 -416q52 -192 156 -255l-31 -34q-297 169 -416 424q-103 217 -103 569z" />
<glyph unicode=")" horiz-adv-x="663" d="M56 1618l31 34q282 -153 407 -414q111 -232 111 -579q0 -362 -113 -609q-131 -286 -408 -393l-26 36q98 58 146 159q44 93 60 255q12 125 12 382q0 296 -10 457q-16 259 -58 417q-53 191 -152 255z" />
<glyph unicode="*" horiz-adv-x="872" d="M62 1367l91 143l236 -182l-39 295h166l-23 -285l217 172l91 -143l-270 -117l267 -122l-82 -140l-236 174l33 -291h-166l42 288l-234 -179l-87 145l272 122z" />
<glyph unicode="+" horiz-adv-x="1256" d="M58 596v127h505v513h126v-513h513v-130h-510v-517h-126v520h-508z" />
<glyph unicode="," horiz-adv-x="432" d="M72 -161q6 13 6 14l10 17q4 6 16.5 34t16.5 43q8 30 17 116.5t9 159.5q0 54 -7 90h242q0 -88 -11 -148q-16 -88 -60 -160q-32 -54 -70.5 -95t-75.5 -60l-34 -17q-5 -4 -15.5 -8t-20.5 -4t-20 4q-7 2 -3 14z" />
<glyph unicode="-" d="M64 480l37 332h659q29 0 59 10.5t52 33.5q13 14 22 32t14 38h42l-34 -327h-669q-54 0 -98 -44q-14 -14 -30 -45q-5 -11 -12 -30h-42z" />
<glyph unicode="." horiz-adv-x="476" d="M63 168q0 73 43 122q48 55 133 55t135 -56q45 -51 45 -123q0 -74 -43 -123q-48 -55 -134 -55q-85 0 -132 53.5t-47 126.5z" />
<glyph unicode="/" horiz-adv-x="1423" d="M60 -432l1187 2133h142l-1187 -2133h-142z" />
<glyph unicode="0" horiz-adv-x="1386" d="M62 718v187q0 291 168 515q181 242 449 243q291 0 479 -254q173 -234 173 -553v-98q0 -319 -166 -552q-180 -253 -467 -253q-279 0 -463 238q-173 223 -173 527zM446 765q0 -134 13 -237q20 -160 69 -252q61 -117 162 -117q104 0 165 118q49 94 68 260q13 112 13 261v110 q0 125 -15 225q-20 144 -68 224q-61 103 -161 103q-94 0 -154 -105q-50 -87 -71 -230.5t-21 -295.5v-64z" />
<glyph unicode="1" horiz-adv-x="822" d="M58 1473v57q81 7 149.5 21t163.5 39q44 12 108.5 36.5t127.5 49.5q13 6 21 9.5t13 -0.5q6 -4 6 -12l-3 -24l-13 -272v-1154q-1 -14 -1 -30q0 -32 4.5 -62t17 -50.5t56.5 -30.5q25 -5 50 -8v-42q-72 6 -118 8.5t-81 2.5q-24 0 -51 -0.5t-57 -0.5h-60t-56 1q-81 0 -210 -11 v42q38 4 68 13t41.5 27.5t15.5 50t4 63.5q-1 25 -1 27v1117q0 43 -7 62q-11 30 -41 41t-69 17.5t-78 12.5z" />
<glyph unicode="2" horiz-adv-x="1217" d="M63 -2l7 228q128 73 253 175q185 150 295 309q142 205 142 400q0 143 -76.5 235t-195.5 92q-109 0 -204 -94q-67 -67 -123 -176l-51 3q17 113 21.5 149.5t4.5 88.5q0 31 2.5 91.5t2.5 69.5q88 44 176 67q100 26 207 27q266 0 443 -135q185 -141 185 -369 q0 -195 -155 -393q-119 -152 -320 -295q-134 -95 -264 -160l181 5h560l-40 -318h-1051z" />
<glyph unicode="3" horiz-adv-x="1197" d="M58 115h158q158 0 322 99q195 117 195 284q0 125 -134 198q-115 62 -273 62h-102l18 157q8 -1 17 -1h17q152 0 281 83q146 92 146 226q0 16 -1 24q-11 107 -84 157q-56 38 -144 38q-106 0 -204 -92q-64 -60 -118 -154h-62l44 391q93 42 197.5 64t227.5 22q196 0 341 -87 q167 -100 167 -268q0 -144 -113 -262q-97 -100 -237 -145q180 -16 295 -111q123 -102 123 -258q0 -186 -140 -333q-118 -124 -309 -197q-168 -64 -314 -65h-166l-75 11z" />
<glyph unicode="4" horiz-adv-x="1323" d="M63 358v210q1 1 55 86q68 107 120 186q78 119 133 200q76 110 191 254q78 98 184 228q92 112 95 117h222v-1069h197v-204h-204v-366h-342v358h-651zM273 568h438v639q-1 -2 -46 -62q-10 -12 -99 -134q-79 -106 -107 -147q-41 -60 -143 -228q-39 -64 -43 -68z" />
<glyph unicode="5" horiz-adv-x="1119" d="M64 849l73 803l893 8l-37 -309h-682l-26 -316q85 33 164 44.5t130 17.5q6 1 21 1q81 0 172 -32q123 -43 197 -127q94 -106 94 -262q0 -205 -149 -381q-136 -160 -356 -255.5t-441 -95.5l-49 167q209 0 397 139q214 156 214 382q0 113 -74 187q-90 91 -267 91 q-54 0 -129 -19q-73 -21 -145 -43z" />
<glyph unicode="6" horiz-adv-x="1379" d="M63 599q0 243 149 492q124 206 329 385q174 153 321 215l46 -81q-79 -69 -129.5 -126t-111 -145.5t-99 -164.5t-72.5 -177q23 24 106 59q103 44 181 44q14 0 21 -1q246 0 387 -161q129 -148 129 -377q0 -257 -189 -439t-451 -182q-267 0 -439 177q-178 184 -178 482z M426 517q0 -143 65 -247q73 -117 194 -117q115 0 190 116q69 107 69 255q0 144 -68 236q-72 98 -193 98q-118 0 -191 -108q-66 -98 -66 -233z" />
<glyph unicode="7" horiz-adv-x="1259" d="M64 1092q17 74 29.5 143t20.5 135.5t14.5 128t6.5 124.5q106 0 193 -2q260 -7 315 -7q121 0 219 2q295 7 334 7q-39 -110 -122 -310.5t-136 -338.5q-79 -210 -126 -377q-61 -216 -80 -390t-24 -207h-389q0 132 40 290.5t116 324.5q70 153 167 299q64 98 165 228 q107 138 126 167h-601q-50 0 -86.5 -16.5t-58.5 -54.5q-16 -27 -25.5 -68t-18.5 -78h-79z" />
<glyph unicode="8" horiz-adv-x="1310" d="M64 431q0 148 95 262q82 100 232 169q-110 70 -173 156q-76 105 -76 229q0 192 173 312q159 109 382 108q189 0 339 -102q167 -115 167 -289q0 -136 -56 -220q-60 -88 -207 -159q118 -56 211 -163q114 -134 114 -277q0 -199 -117 -326q-95 -103 -258 -150 q-123 -36 -260 -36q-220 0 -387 134q-179 143 -179 352zM385 431q0 -113 81 -191.5t192 -78.5q103 0 172.5 69t69.5 170q0 81 -51 147q-37 48 -123 102q-70 42 -140 85q-99 -88 -129 -125q-72 -88 -72 -178zM500 1294q0 -66 65 -135q75 -81 176 -127q92 92 109.5 126.5 t17.5 114.5q0 86 -51 138t-127 52q-75 0 -132.5 -49.5t-57.5 -119.5z" />
<glyph unicode="9" horiz-adv-x="1366" d="M56 1134q0 228 185 395t430 167q295 0 469 -199q161 -186 161 -465q0 -258 -127 -485q-116 -209 -323 -374q-190 -150 -432 -246l-75 120q156 122 212 175q39 38 133 149q78 92 130.5 182t83.5 176q-66 -49 -137 -77q-92 -37 -186 -37q-216 0 -370 152.5t-154 366.5z M421 1229q0 -152 72 -266q76 -123 193 -123q130 0 192 93q52 78 52 206q0 134 -68 236q-76 116 -197 116q-129 0 -191 -79q-53 -67 -53 -183z" />
<glyph unicode=":" horiz-adv-x="509" d="M53 168q0 73 42 122q48 55 133 55t136 -56q45 -50 45 -123t-44 -123q-48 -55 -133 -55t-132 53.5t-47 126.5zM53 924q0 73 42 120q49 55 133 55q85 0 136 -56q45 -50 45 -123t-44 -122q-48 -54 -133 -54t-132 53.5t-47 126.5z" />
<glyph unicode=";" horiz-adv-x="469" d="M69 -161q6 13 6 14l11 17q6 11 16 35.5t16.5 48t15.5 110t9 159.5q0 54 -7 90h242q0 -87 -10 -148q-16 -91 -59 -160q-69 -113 -148 -155l-33 -17q-6 -5 -15 -8.5t-20 -3.5q-8 0 -21 4q-6 2 -3 14zM78 924q0 73 43 120q49 55 132 55q85 0 136 -56q45 -50 45 -123 t-44 -122q-48 -54 -133 -54t-132 53.5t-47 126.5z" />
<glyph unicode="&#x3c;" horiz-adv-x="1244" d="M54 529v129l1141 544v-143l-972 -473l972 -448v-133z" />
<glyph unicode="=" horiz-adv-x="1107" d="M55 370v112h987v-112h-987zM55 647v111h987v-111h-987z" />
<glyph unicode="&#x3e;" horiz-adv-x="1255" d="M58 5v133l972 448l-972 473v143l1140 -544v-129z" />
<glyph unicode="?" horiz-adv-x="1189" d="M60 1162l28 417q110 54 218 74t251 20q235 0 398 -112q181 -125 181 -345q0 -137 -83 -243q-75 -95 -204 -153l-117 -53q-107 -45 -111 -47q-54 -29 -84 -79q-23 -37 -31 -71t-8 -79h-76q0 39 -3.5 103.5t-3.5 103.5q0 66 -8 138.5t-16 87.5q147 0 264 73q131 82 131 207 q0 14 -1 23q-11 119 -76 184q-74 73 -214 72q-141 0 -259 -102q-111 -97 -132 -219h-44zM265 181q0 95 63 152q57 51 140 51q79 0 132 -47q61 -54 61 -147q0 -95 -63 -152q-57 -51 -140 -51q-80 0 -133 48q-60 54 -60 146z" />
<glyph unicode="@" horiz-adv-x="1596" d="M86 741q0 309 219 529.5t527 220.5q283 0 489 -164q219 -173 219 -434q0 -228 -146.5 -409t-344.5 -181q-85 0 -126 84q-13 27 -26 84l-62 -70q-41 -45 -87.5 -67.5t-108.5 -22.5q-121 0 -201 100q-75 93 -75 222q0 190 160 331q146 129 296 129q58 0 100.5 -22.5 t59.5 -71.5l20 -57l42 127l175 4l-160 -590q-2 -12 -4.5 -26t-2.5 -27q0 -31 9.5 -50.5t31.5 -19.5q125 0 232.5 166.5t107.5 349.5q0 238 -186 380q-168 129 -412 128q-263 0 -449 -186t-186 -448q0 -273 190.5 -468.5t459.5 -195.5q198 0 341 76q101 54 164 141 q21 38 44 78h136q-30 -51 -59 -103q-87 -118 -214 -192q-179 -104 -415 -104q-314 0 -536 222t-222 537zM547 541q0 -70 31 -116q37 -54 108 -54q101 0 192 185q83 168 83 304q0 81 -31 131t-90 50q-100 0 -196.5 -169.5t-96.5 -330.5z" />
<glyph unicode="A" horiz-adv-x="1839" d="M69 -4v47q27 0 44.5 7.5t40.5 26t36 51.5q5 12 14 38l454 1255q7 17 10 28q11 32 11 56q0 8 -1 13q-5 24 -50 43q-14 6 -46 14v43q84 -10 148.5 -14t109.5 -4q55 0 125.5 7.5t102.5 9.5l563 -1439q11 -29 24 -54q18 -33 35.5 -50t38.5 -23.5t50 -6.5v-46q-56 0 -109 2 q-186 8 -222 8q-79 0 -156 -3.5t-170 -6.5v45q11 -5 55 7q25 7 45 19q26 17 26 58q0 29 -12 60l-114 317h-526l-107 -335q-4 -17 -4 -20q-1 -7 -2 -21q0 -30 16.5 -51.5t65.5 -31.5q24 -4 48 -7v-42q-75 4 -150 6.5t-141 2.5q-68 0 -136.5 -3t-116.5 -6zM666 703h378 q2 10 -63 185q-48 127 -61 168q-7 23 -33 99q-19 56 -38 130q-5 -14 -26 -91t-37 -122q-8 -26 -84 -257q-27 -82 -36 -112z" />
<glyph unicode="B" horiz-adv-x="1606" d="M79 -2v44q21 -2 44 5t45.5 22t28.5 46.5t6 67.5v1261v16q0 32 -5 50.5t-22 34t-43 21t-49 9.5v43h928q181 0 306 -105t125 -268q0 -134 -103 -253q-95 -111 -213 -139q181 0 305 -112t124 -279q0 -238 -195 -361q-164 -103 -417 -103h-5h-860zM576 939h210q115 0 195 62 q88 68 88 179t-84 173q-75 55 -188 55h-221v-469zM587 210h208q155 0 253 59q119 71 119 217q0 104 -80 175t-190 71l-310 2v-524z" />
<glyph unicode="C" horiz-adv-x="1556" d="M333 1407q261 253 631 253q144 0 237.5 -16t207.5 -67l-2 -220q0 -75 3 -120t13 -134h-60q-16 150 -130.5 238t-270.5 88q-211 0 -358.5 -160.5t-147.5 -379.5q0 -279 163.5 -475t409.5 -196q90 0 198 37q84 29 172 76q65 33 86 53l-34 -272q-111 -66 -226 -105 q-152 -51 -298 -51q-374 0 -617 245q-238 239 -238 590q0 363 261 616z" />
<glyph unicode="D" horiz-adv-x="1796" d="M82 1575v43h794q413 0 649 -212q232 -209 232 -563q0 -351 -285 -604q-272 -241 -617 -241h-757v44q2 -7 41.5 5.5t53 27.5t16.5 40t3 33q-1 25 -1 29v1306q0 19 -10 41.5t-29 33t-45 13t-45 4.5zM598 226h179q271 0 432 157q154 150 154 390q0 269 -164 442 q-173 183 -464 183h-137v-1172z" />
<glyph unicode="E" horiz-adv-x="1521" d="M63 0v42q5 -5 36.5 2t52 23.5t30.5 40t10 45.5v1295q0 26 -6 50q-11 39 -31.5 50.5t-56.5 19.5q-18 4 -35 7v43q85 0 208.5 -4t174.5 -4q246 0 388.5 2t324.5 4t224 2q0 -31 3.5 -80t3.5 -78l18 -246h-53q-5 30 -9 46q-11 49 -28 78q-17 31 -54 46.5t-75 15.5h-617v-440 h385q45 0 64.5 7.5t39.5 33.5q13 18 19.5 48t4.5 38h46q1 -2 2 -18q0 -30 -3 -121t-3 -110q0 -73 2 -140t5 -77h-52q0 47 -34 84q-18 20 -57 31q-13 2 -36 6h-383v-524h598q51 0 96 17q57 21 83 63q63 100 63 184h56l-41 -482l-882 2q-103 0 -266 -1t-216 -1z" />
<glyph unicode="F" horiz-adv-x="1435" d="M61 1575l1 43q92 0 237.5 -3.5t237.5 -3.5q273 0 392.5 0.5t248 2.5t160.5 2q0 -72 1 -108t7 -100q0 -53 7 -102q12 -64 18 -103h-56q6 6 -7 56t-38 80t-70 47.5t-78 17.5h-554v-499h363q53 0 86 37q18 19 25 65q1 16 3 43h54q0 -49 -3.5 -126.5t-3.5 -127.5 q0 -51 2.5 -148.5t2.5 -110.5h-55q-2 20 -4 42q-8 44 -24 67.5t-38 33.5t-58 10h-350v-467q-1 -14 -1 -30q0 -32 4 -62t16.5 -50.5t56.5 -30.5q25 -5 51 -8v-42q-72 6 -118 8.5t-82 2.5q-24 0 -50.5 -0.5t-56.5 -0.5h-60.5t-55.5 1q-81 0 -210 -11v42q38 4 68 13t41.5 27.5 t15.5 50t4 63.5q-1 25 -1 27v1232q0 33 -11 52t-36 41q-19 16 -38 21.5t-44 5.5z" />
<glyph unicode="G" horiz-adv-x="1817" d="M66 809q0 418 291 648q260 205 662 206q150 0 318 -37t212 -72q-5 -20 -6.5 -103t-1.5 -118q0 -54 2 -91q8 -130 9 -145h-58q-44 162 -159 247q-119 88 -312 88q-257 0 -414 -172q-149 -164 -150 -407q0 -261 129 -447q141 -203 367 -203q162 0 231 70q62 63 62 194v88 q0 51 -3 67q-7 32 -32 51.5t-65 22.5t-79 7v62q64 -8 130.5 -11.5t217.5 -3.5h28.5h18.5q97 0 155 2.5t143 12.5v-54q-25 -2 -40 -3q-45 -7 -64 -23q-14 -11 -27 -32q-18 -32 -17 -49v-604h-146l-67 172q-62 -85 -206 -148q-155 -68 -313 -68q-340 0 -578 253.5t-238 599.5z " />
<glyph unicode="H" horiz-adv-x="1804" d="M67 0v42q38 4 68 13t41 27.5t15.5 50t4.5 63.5q-1 25 -1 27v1172q1 14 1 30q0 32 -4.5 62t-15 48.5t-40.5 27.5q-35 6 -69 12v43q53 -5 109 -7.5t91 -2.5h43t48 1h16q31 0 59.5 -0.5t55.5 -0.5q60 0 94.5 1t115.5 9v-43q-17 -2 -32 -3q-60 -8 -76 -37q-11 -18 -15 -49 t-4 -63q1 -25 1 -28v-425h667v425q1 14 1 30q0 32 -4 62t-15 48q-14 24 -58 33q-25 4 -50 7v43q53 -5 111.5 -7.5t98.5 -2.5h47t52 1h16q29 0 56 -0.5t51 -0.5q55 0 86 1t114 9v-43q-38 -2 -68 -11t-41 -28t-15.5 -50t-4.5 -63q1 -25 1 -28v-1172q-1 -14 -1 -30 q0 -32 4.5 -62t17 -50.5t56.5 -30.5q25 -5 51 -8v-42q-70 6 -121 8.5t-89 2.5q-26 0 -55.5 -0.5t-60.5 -0.5h-56.5t-50.5 1q-64 0 -105 -3q-57 -6 -94 -8v42q26 2 48 7q45 11 60 35q11 18 15 49t4 63q-1 25 -1 27v509h-667v-509q-1 -14 -1 -30q0 -32 4 -62t16.5 -50.5 t56.5 -30.5q25 -5 50 -8v-42q-72 6 -117.5 8.5t-81.5 2.5q-24 0 -51 -0.5t-56 -0.5h-60.5t-55.5 1q-81 0 -210 -11z" />
<glyph unicode="I" horiz-adv-x="761" d="M66 0v42q38 4 68 13t41 27.5t15.5 50t4.5 63.5q-1 25 -2 27v1172q1 14 2 30q0 32 -4.5 62t-15 48.5t-40.5 27.5q-35 6 -69 12v43q53 -5 108.5 -7.5t91.5 -2.5h43t48 1h15q31 0 60 -0.5t56 -0.5q60 0 94.5 1t115.5 9v-43q-17 -2 -32 -3q-60 -8 -76 -37q-11 -18 -15.5 -49 t-4.5 -63q1 -25 2 -28v-1172q-1 -14 -2 -30q0 -32 4.5 -62t17 -50.5t56.5 -30.5q25 -5 50 -8v-42q-72 6 -117.5 8.5t-81.5 2.5q-24 0 -51 -0.5t-57 -0.5h-60t-55 1q-81 0 -210 -11z" />
<glyph unicode="J" horiz-adv-x="799" d="M62 -263q53 20 87 49t55 77q16 35 23.5 87t7.5 110v1324q0 41 -6 80.5t-18 58.5t-52 32l-90 20v43q118 -11 186 -14.5t159 -3.5q78 0 182.5 7t143.5 11v-43q-10 4 -43 -4t-49 -28q-35 -41 -35 -77v-1245q0 -103 -21 -191q-25 -103 -76 -167q-85 -107 -186.5 -160.5 t-226.5 -53.5z" />
<glyph unicode="K" horiz-adv-x="1705" d="M58 0v42q26 2 49 7q45 11 60 35q11 18 15 49t4 63q-1 25 -1 27v1172q1 14 1 30q0 32 -4 62t-15 48q-14 24 -58 33q-25 4 -51 7v43q38 -4 94 -7t106 -3h43.5t48.5 1h15q31 0 60 -0.5t56 -0.5q60 0 93 1t117 9v-43q-38 -2 -68 -11t-41.5 -28t-15.5 -50t-4 -63q1 -25 1 -28 v-555q23 20 83 92q14 17 111 136q58 73 121 158q56 75 109 148q47 64 48 68q17 23 23.5 36t6.5 29q0 10 -2 16q-6 29 -31 40l-62 12v43q66 0 112 -2q161 -8 184 -8q66 0 110 2q156 8 176 8v-43q-31 -7 -63 -14q-39 -13 -65 -42q-35 -38 -81 -98q-8 -11 -23 -28l-386 -475 q66 -84 97 -124q24 -31 85 -114q50 -68 93 -127q70 -99 156 -226q76 -111 87 -130q25 -39 36 -57q21 -32 46 -52q18 -14 46.5 -26.5t68.5 -19.5v-42q-63 0 -155 4t-130 4q-51 0 -126.5 -4t-106.5 -4q-35 54 -69 109q-84 130 -135 208q-80 122 -154 225q-53 73 -103 145 q-47 64 -107 135v-599q-1 -14 -1 -30q0 -32 4 -62t17 -50.5t57 -30.5q25 -5 51 -8v-42q-72 6 -118.5 8.5t-81.5 2.5q-24 0 -51 -0.5t-56 -0.5h-60t-55 1q-82 0 -211 -11z" />
<glyph unicode="L" horiz-adv-x="1464" d="M63 0v42q16 1 31 3q33 8 55 22q44 31 44 61v1270q0 43 -1 54q-5 54 -25 80q-11 14 -42 25q-31 8 -62 18v43q30 -7 110 -11t227 -4q93 0 204 4.5t131 10.5v-43q-5 4 -34 -4q-68 -18 -90 -45q-25 -31 -37 -89q-4 -19 -6 -53v-1161h460q78 0 129 15.5t99 62.5q37 35 56 93 q14 49 29 99l63 -13q-16 -61 -27.5 -120.5t-21 -132t-14 -121t-4.5 -106.5l-62 2q-103 0 -267.5 1.5t-268.5 1.5q-128 0 -299 -2t-356 -3h-15h-6z" />
<glyph unicode="M" horiz-adv-x="2205" d="M66 -6v48q38 0 62 7t47.5 30.5t32 47t8.5 78.5l70 1262q0 25 -4 39t-17 32q-17 21 -43 29t-61 8v45q36 0 129 -10t152 -10q84 0 145.5 4.5t97.5 13.5l429 -1123l389 1123q113 -10 146.5 -12.5t96.5 -2.5q148 0 272 15v-43q-17 0 -47 -14.5t-46 -38.5q-5 -7 -9 -18.5 t-4 -28.5q0 -10 2.5 -35.5t2.5 -28.5l90 -1221q0 -31 3 -57t21 -48.5t58 -34.5q29 -8 56 -8v-42q-26 0 -151.5 5.5t-185.5 5.5q-73 0 -123 -3q-174 -8 -197 -8v42q53 0 78.5 10t51.5 36q16 16 22.5 37t6.5 46q0 10 -1 31t-1 34l-71 980l-420 -1216h-206l-457 1196l-41 -1017 q0 -55 13 -79t43 -40q19 -11 53 -12t51 -6v-48q-62 6 -101.5 7t-106.5 1h-75q-165 0 -261 -8z" />
<glyph unicode="N" horiz-adv-x="1774" d="M69 0v42q20 0 43 9t44.5 22.5t34.5 36t13 61.5v1289q0 25 -2.5 45.5t-22.5 42.5q-16 16 -45.5 21t-42.5 6v43q57 -11 113.5 -13.5t149.5 -2.5q67 0 144 5t106 11l754 -1088v911q0 19 -16.5 55t-41.5 57q-19 14 -45 18t-53 4h-14v43q18 -2 48 -2.5t49 -0.5q25 0 81.5 1 t90.5 1h35h28h24h21h16h15h13h42t45 1h13v-43q-13 1 -21 2q-30 0 -47.5 -9t-27 -24t-19.5 -46.5t-10 -39.5v-1458h-283q-78 107 -177 252q-82 121 -156 230q-104 155 -178 260q-32 49 -130 190q-85 123 -117 171q-57 86 -113 178v-1094q0 -39 13.5 -66.5t44.5 -46.5 q13 -8 35 -19q31 -16 51 -16q6 0 16 3v-38q-6 -2 -21 -3t-25 -1q-24 0 -102.5 5t-126.5 5z" />
<glyph unicode="O" horiz-adv-x="1845" d="M303 1420q249 255 648 256q353 0 593 -252.5t240 -611.5q0 -362 -242 -610q-248 -254 -622 -255q-371 0 -616 256q-238 248 -238 608q0 366 237 609zM586 426q146 -242 363 -242q202 0 330 168q120 155 120 371q0 274 -123 479q-141 234 -375 234q-226 0 -344 -165 q-102 -141 -102 -360q0 -267 131 -485z" />
<glyph unicode="P" horiz-adv-x="1563" d="M64 1575v43h810q294 0 463 -136t169 -370q0 -247 -162 -384q-147 -124 -377 -124q-64 0 -153.5 17.5t-110.5 26.5l-55 26q-11 6 -21 15q-18 14 -15 27q6 26 38 26l162 -6q135 0 228.5 103.5t93.5 241.5q0 153 -111 238q-99 76 -250 76h-200v-1172q0 -8 -0.5 -17t-0.5 -20 q0 -27 4 -56t14 -46q14 -24 59 -34q25 -5 52 -8v-42q-72 6 -118.5 8.5t-82.5 2.5q-24 0 -51 -0.5t-55 -0.5h-60.5t-55.5 1q-82 0 -210 -11v42q29 7 59 14q26 10 42 26.5t21 49t5 71.5v13v7v1237q0 36 -7.5 52t-29 33t-54.5 24q-11 2 -40 6z" />
<glyph unicode="Q" horiz-adv-x="1922" d="M60 818q0 362 244 605q251 250 647 250h3q352 0 592 -242q244 -246 244 -621q0 -184 -58.5 -335.5t-166.5 -242.5q43 -42 93 -64q31 -12 57 -18.5t55 -6.5h91q-6 -16 -16 -32q-17 -27 -18 -30q-6 -12 -9.5 -25t-5.5 -30q-6 -6 -102 -29t-158 -23q-74 0 -127 16t-105 52 q-104 -53 -193.5 -74t-208.5 -21q-382 0 -620 245.5t-238 625.5zM452 914q0 -278 109 -480q130 -244 369 -244h2q230 0 356 167q110 147 110 369q0 274 -114 473q-135 238 -377 238q-223 0 -346 -161q-109 -143 -109 -362z" />
<glyph unicode="R" horiz-adv-x="1698" d="M62 0v42q38 4 68 13t41.5 27.5t15.5 50t4 63.5q-1 25 -1 27v1237q0 32 -5.5 51.5t-24 35.5t-46 22t-52.5 6v43h980q185 0 320 -134.5t135 -318.5q0 -177 -122 -297q-116 -115 -314 -152l389 -542q11 -17 32.5 -37t43.5 -42t64 -40q33 -14 45 -13l1 -42q-73 8 -138.5 10.5 t-151.5 2.5q-105 0 -223 -13q-54 86 -100 158q-64 98 -105 158q-35 53 -126 180q-94 132 -116 165q-53 74 -53 78q-2 5 -5 13.5t-3 17.5q0 4 3.5 12t16.5 9t26 3h44q158 0 272 80q128 90 128 234q0 123 -82.5 205t-200.5 82h-254v-1172q0 -8 -0.5 -17t-0.5 -20 q0 -37 3.5 -60t15.5 -41.5t42 -29.5q61 -12 67 -13v-42q-72 6 -118 8.5t-82 2.5q-24 0 -50.5 -0.5t-56.5 -0.5h-60.5t-55.5 1q-81 0 -210 -11z" />
<glyph unicode="S" horiz-adv-x="1478" d="M63 1156q0 241 241 384q209 123 487 123q143 0 287 -23t199 -53q0 -57 5 -121q1 -12 11 -122q0 -55 10 -140q6 -42 12 -83h-62q-21 141 -168 236q-140 91 -314 91q-138 0 -230 -49q-107 -57 -108 -165q0 -68 49 -115q39 -38 118 -66q38 -14 145 -45l174 -48 q248 -70 362 -166q133 -114 133 -301q0 -265 -236 -413q-208 -130 -511 -130q-160 0 -294 22t-250 67l-8 237q0 48 -12 176q-6 64 -6 111h59q50 -221 195 -317q124 -82 334 -82q137 0 232 50q113 60 113 170q0 75 -50 128q-43 44 -124 78q-45 19 -155 49l-169 46 q-206 56 -327 165q-142 127 -142 306z" />
<glyph unicode="T" horiz-adv-x="1563" d="M64 1128q8 64 17.5 130t9.5 129q0 53 2 88q8 127 8 143h1374q0 -56 4 -135t4 -112q0 -61 8 -127t13 -111h-60q0 42 -10 84t-34 90.5t-62 69.5t-93 21h-270v-1175q-1 -14 -1 -30q0 -32 4 -62t16.5 -50.5t56.5 -30.5q25 -5 51 -8v-42q-72 6 -118 8.5t-82 2.5 q-24 0 -50.5 -0.5t-56.5 -0.5h-60.5t-55.5 1q-81 0 -210 -11v42q26 2 49 7q44 10 61 32q11 14 15 41.5t4 58.5q-1 39 -1 42v1175h-281q-48 0 -90 -29.5t-62 -77.5q-11 -26 -23.5 -73t-23.5 -90h-53z" />
<glyph unicode="U" horiz-adv-x="1705" d="M57 1575v43q55 0 190 -8q78 -5 119 -5q57 0 169 6.5t156 6.5v-43q-30 -4 -60 -6q-27 -6 -43 -20t-27 -43.5t-11 -55.5v-970q0 -159 93 -231q77 -59 214 -59h5q144 0 217 65q86 78 86 253v955q0 54 -47 87q-16 12 -40.5 16.5t-47.5 8.5v43q58 0 153.5 -6t155.5 -6 q109 0 196.5 3t109.5 9v-43q-24 -5 -44.5 -9t-34.5 -16.5t-22 -34t-8 -32.5v-975q0 -216 -101 -342q-87 -109 -255 -156q-135 -38 -327 -39q-199 0 -327 37q-166 49 -250 164q-99 135 -99 372v902q0 32 -5 58.5t-24 43.5q-12 11 -35 17q-29 5 -56 10z" />
<glyph unicode="V" horiz-adv-x="1768" d="M66 1575v43q62 0 161 -6t162 -6h119q44 0 100 1t132 11v-43l-78 -12q-32 -11 -47.5 -34.5t-15.5 -53.5q0 -16 2 -24.5t9 -29.5l347 -993l336 976q5 16 7 25q7 30 7 51q0 19 -5 30q-19 44 -69 57q-26 4 -53 8v43q70 -7 120 -8.5t148 -1.5q138 0 256 10v-43 q-48 -10 -66 -20.5t-33 -31.5q-18 -29 -38 -82q-16 -42 -18 -57l-504 -1386h-300l-531 1415q-8 21 -16 43t-21 41q-25 39 -52 56q-19 12 -59 22z" />
<glyph unicode="W" horiz-adv-x="2349" d="M57 1575v43q62 0 162.5 -6t162.5 -6q88 0 154.5 2.5t133.5 9.5v-43q-23 -6 -42 -12q-38 -12 -47 -29.5t-9 -36.5q0 -24 6 -46t14 -45l270 -970l215 726l-70 251q-10 41 -26.5 73t-39 49.5t-70.5 29.5q-17 5 -51 10v43q32 -5 116 -8.5t244 -3.5h129q50 0 114.5 1t112.5 11 v-43q-18 -2 -36 -3q-70 -12 -94 -44q-8 -13 -12.5 -32.5t-4.5 -39.5t1.5 -31t2.5 -19l256 -980l263 995q2 12 4 24.5t2 32.5q0 26 -7 40q-14 30 -64 45q-50 11 -54 12v43q61 -6 124 -7t156 -1q51 0 127.5 4t102.5 4v-43q-30 -7 -58 -14q-26 -12 -56 -57q-23 -35 -38 -90 t-18 -70l-402 -1346h-304l-241 889l-254 -889h-304l-425 1439q-12 41 -39 86q-14 23 -44 35.5t-63 16.5z" />
<glyph unicode="X" horiz-adv-x="1755" d="M56 0v42q31 0 57.5 9t54.5 27q21 13 35 27t48 63l438 646l-332 563q-18 32 -39 64.5t-39 57.5q-30 39 -56.5 54t-88.5 22v43q99 -8 182 -11.5t182 -3.5q199 0 336 15v-43q-16 -2 -40 -5.5t-42.5 -18.5t-18.5 -44q0 -24 13 -47l179 -332l212 329q8 13 15 27.5t7 26.5 q0 10 -6 21q-11 21 -39 28.5t-54 14.5v43q63 0 107 -2q155 -8 176 -8q55 0 124 0.5t137 9.5v-43q-18 -6 -38 -12q-42 -13 -66.5 -28t-54.5 -54q-26 -41 -27 -42l-353 -513l444 -739q12 -19 25 -38q27 -38 47 -55q35 -26 76 -43q17 -5 33 -9v-42q-64 0 -171.5 5t-175.5 5 q-85 0 -155 -3q-211 -7 -234 -7v42q48 6 82.5 13.5t45 25t10.5 37.5t-6 40t-18 41l-239 418l-278 -432q-19 -33 -20 -36q-10 -19 -9 -36q0 -6 4 -22q10 -29 61 -41q51 -8 55 -8v-42q-66 0 -163 4t-138 4q-63 0 -155 -4t-130 -4z" />
<glyph unicode="Y" horiz-adv-x="1633" d="M60 1575v43q58 0 204 -8q84 -5 127 -5q57 0 168.5 6.5t154.5 6.5v-43q-1 -5 -23 -4q-31 0 -47.5 -2.5t-27 -17t-10.5 -31.5t10 -40q4 -10 12 -28l261 -599l226 509q21 51 22 55q14 39 15 66q0 18 -7 35q-13 29 -35.5 39.5t-67.5 17.5v43q63 -6 134 -9.5t139 -3.5 q54 0 124.5 1.5t132.5 11.5v-43q-32 -7 -57 -21q-35 -19 -57 -48q-30 -39 -38 -54q-13 -23 -36 -70l-380 -821v-338q-1 -14 -1 -30q0 -32 4 -62t16.5 -50.5t56.5 -30.5q25 -5 50 -8v-42q-72 6 -117.5 8.5t-81.5 2.5q-24 0 -51 -0.5t-57 -0.5h-60t-55 1q-81 0 -210 -11v42 q38 4 68 13t41 27.5t15.5 50t4.5 63.5q-1 25 -2 27v347l-395 851q-14 36 -22 54q-16 35 -37 54q-29 25 -45 32t-66 14z" />
<glyph unicode="Z" horiz-adv-x="1570" d="M62 0l827 1393h-458q-51 0 -92 -11t-66 -34.5t-38 -71.5l-14 -54h-42l29 396h1258l-831 -1392h586q67 0 108 16.5t71 60.5q24 35 43 88.5t17 67.5h50q-12 -74 -21 -131q-12 -79 -14 -107q0 -42 -4.5 -110t-4.5 -111h-1404z" />
<glyph unicode="[" horiz-adv-x="554" d="M63 -296v1901l425 52v-39q-74 -8 -117 -65q-19 -24 -26 -60t-7 -62v-1512q2 -20 3 -32q11 -74 23 -110t67.5 -60t64.5 -13v-42z" />
<glyph unicode="\" horiz-adv-x="1451" d="M62 1701h142l1220 -2133h-142z" />
<glyph unicode="]" horiz-adv-x="550" d="M58 -296q10 -11 65 13t65.5 55.5t20.5 91.5q2 19 7 55v1512q0 26 -7 62t-26 60q-42 56 -117 65v39l425 -52v-1901l-433 -42v42z" />
<glyph unicode="^" horiz-adv-x="883" d="M72 1423q58 18 101 35t102 43.5t96 46.5q29 16 92 54q32 -23 73.5 -48.5t76.5 -44.5q61 -31 110.5 -51t110.5 -38l-26 -135q-103 12 -204 53q-41 16 -73 33t-70 42q-44 -30 -79 -48t-87 -37.5t-96.5 -31t-85.5 -11.5z" />
<glyph unicode="_" horiz-adv-x="1555" d="M11 -316h1601v-77h-1601v77z" />
<glyph unicode="`" horiz-adv-x="706" d="M51 1462l130 156q51 -55 101 -91t121.5 -73t126.5 -54.5t136 -28.5l-53 -119q-99 0 -164.5 14.5t-160.5 53.5q-125 50 -237 142z" />
<glyph unicode="a" horiz-adv-x="1395" d="M64 325q0 173 107 266q87 76 254 105l218 36q61 7 123 15q70 19 71 81q0 13 -4 30q-18 84 -33 104q-45 57 -183 57q-128 0 -237 -64.5t-128 -158.5h-62l7 47q11 74 16 149.5t5 143.5q107 39 184 56q101 21 228 22q295 0 435 -104q131 -98 131 -296v-633q0 -27 13 -60 t41 -53q19 -14 63 -24q7 -1 20 -5v-39h-10q-19 0 -61 2q-150 11 -196 11q-50 0 -92 -3t-105 -10v174q-60 -101 -163 -153t-242 -52q-148 0 -269 100q-130 107 -131 256zM418 338q0 -67 52 -109q47 -37 111 -37q100 0 179 73t79 162l5 154q-98 -21 -190 -45 q-184 -48 -210 -100t-26 -98z" />
<glyph unicode="b" horiz-adv-x="1500" d="M63 1616v44q37 0 100 12.5t139 33t165.5 56t101.5 40.5v-754q49 54 133 94q99 48 201 48q261 0 410 -183q135 -166 135 -419q0 -266 -184 -458t-449 -192q-137 0 -231.5 46t-186.5 162q-13 -25 -35 -53q-8 -10 -48 -54q-11 -13 -33.5 -34t-44.5 -42l-46 11 q12 41 19 113.5t7 148.5q0 43 -2 94.5t-3 105.5v1050q0 35 -12.5 56t-39.5 43q-18 14 -44.5 19.5t-51.5 11.5zM548 548q0 -166 56 -268q69 -127 216 -127h2q117 0 184.5 101t67.5 272v58q0 152 -71 256q-78 115 -206 115q-118 0 -187 -104q-62 -93 -62 -226v-77z" />
<glyph unicode="c" horiz-adv-x="1161" d="M63 598q0 272 193.5 448t498.5 176q78 0 163 -21q53 -13 127 -43l11 -358h-55q-13 78 -87 138q-80 67 -180 67q-132 0 -221 -112t-89 -259q0 -178 107 -303q112 -130 282 -130q81 0 154 28q35 14 133 68l-49 -247q-90 -50 -167 -66.5t-191 -16.5q-278 0 -457 186 q-173 180 -173 445z" />
<glyph unicode="d" horiz-adv-x="1471" d="M64 579q0 248 164.5 428.5t406.5 180.5q81 0 159 -30t140 -92l2 127v329q0 24 -12.5 40.5t-36.5 34.5q-17 13 -53 17t-40 7v40q74 13 137.5 28.5t137 37t113 36t118.5 46.5l-22 -331v-1316q0 -36 13 -57q10 -16 40 -37q18 -14 55 -21q13 -2 27 -5v-42q-56 6 -117 9.5 t-122 3.5q-39 0 -139 -8q-57 -5 -89 -5l5 148q-50 -79 -136 -135q-99 -64 -200 -64q-19 0 -29 1q-278 26 -409 210q-112 156 -113 419zM428 568q0 -167 57 -270q66 -119 192 -119q131 0 203 116q64 103 64 275q0 220 -56 305t-193 85q-129 0 -202 -122q-64 -109 -65 -270z " />
<glyph unicode="e" horiz-adv-x="1309" d="M58 584q0 267 165 438q175 181 473 181q223 0 386 -141q177 -153 177 -392v-117h-833q0 -152 102 -261q111 -118 290 -118q112 0 230 52q58 25 180 99l-46 -247q-100 -61 -200 -94q-121 -39 -247 -39q-325 0 -506 184q-171 173 -171 455zM424 739h479q0 105 -69.5 182.5 t-171.5 77.5q-94 0 -161 -82q-57 -70 -77 -178z" />
<glyph unicode="f" horiz-adv-x="998" d="M66 988v96q2 -2 15 -3q35 0 71 11q47 14 70.5 40.5t32 57.5t8.5 79v103q0 161 125 289q147 149 388 149q39 0 73 -5l68 -10l27 -265l-38 -5q-25 35 -59.5 51t-80.5 16q-67 0 -113 -59t-46 -133v-217h304v-195h-295v-749q0 -72 14 -102.5t50 -55.5q30 -21 84 -33 q38 -8 56 -8q7 0 11 2v-44q-100 7 -212 12.5t-180 5.5q-85 0 -205.5 -9t-134.5 -13v48q8 -2 49 3t63 23q30 23 39.5 57.5t9.5 79.5v783h-194z" />
<glyph unicode="g" horiz-adv-x="1415" d="M58 298q0 31 10.5 62t21.5 62l223 113q-70 67 -101.5 136.5t-31.5 166.5q0 189 159 307q149 111 368 111q68 0 160.5 -18t183.5 -37h226l93 8q0 -30 -3 -44t-17 -57q-7 -23 -13.5 -37t-20.5 -39h-156q21 -37 31.5 -80t10.5 -96q0 -229 -168 -338q-138 -90 -369 -90 q-68 0 -130 14q-21 5 -127 33q-21 5 -49 -22t-28 -52q0 -39 31 -63t72 -24l412 -13q236 0 358 -74.5t122 -237.5q0 -216 -212 -342q-186 -111 -449 -111q-189 0 -302 50q-149 66 -162 213q0 31 16 67q10 21 28 46l288 70q-12 -32 -20 -63t-8 -49q0 -98 82 -143 q62 -33 164 -34q94 0 174 44q95 53 95 135q0 61 -59 98q-53 32 -124 32h-385q-181 0 -287.5 78t-106.5 218zM492 862q0 -100 56 -172.5t145 -72.5q88 0 145.5 58.5t57.5 159.5q0 95 -58.5 170t-144.5 75q-11 -1 -15 -1q-81 0 -133.5 -65t-52.5 -152z" />
<glyph unicode="h" horiz-adv-x="1471" d="M66 0v44q23 0 39.5 5t46 25t40 41t10.5 78v1325q0 41 -42 73q-13 11 -45.5 17.5t-32.5 8.5v43q134 17 268 63q70 23 117 42q58 23 103 51l-15 -334v-474q57 87 152 138.5t211 51.5q216 0 302 -123q65 -93 65 -278v-6v-635q0 -29 7.5 -49.5t29.5 -38.5q14 -13 44 -18 t39 -8v-42q-57 0 -143 4t-122 4q-48 0 -117 -4t-98 -4v728q0 87 -23 132q-36 70 -130 71q-97 0 -159 -74t-62 -174v-502q0 -63 8 -81t32.5 -31t55.5 -21.5t37 -3.5v-44q-87 8 -160 12t-160 4q-80 0 -138 -3t-160 -13z" />
<glyph unicode="i" horiz-adv-x="716" d="M63 0v44q20 2 32 4q37 6 54 19.5t29.5 37.5t12.5 38v825q0 27 -13 48t-40 40q-10 6 -27.5 11.5t-38.5 11.5v46q113 17 251 53q43 11 95.5 28t109.5 36q7 5 10 6q12 5 18 -1q4 -4 4 -11q0 -5 -3 -13t-3 -9l-18 -259v-787q0 -13 1 -21q8 -49 37 -74q18 -14 48.5 -25 t39.5 -11l2 -37q-35 5 -123.5 8.5t-183.5 3.5q-62 0 -163.5 -6t-130.5 -6zM143 1510q0 81 50 138q56 63 151 63q97 0 152 -63q51 -58 52 -141q0 -81 -50 -137q-57 -63 -152 -63t-151 63q-51 57 -52 140z" />
<glyph unicode="j" horiz-adv-x="677" d="M57 -390q88 0 118 80q18 49 18 164l5 271v841q0 32 -9 55t-29 38t-51 17.5t-39 3.5v44q99 7 141 11q72 7 135 27t109 37q26 11 104 48v-18v-16l-4 -48v-1235q0 -68 -20 -134q-25 -81 -78.5 -136.5t-153.5 -84.5q-74 -21 -131 -21h-115v56zM178 1511q0 86 52 147 q58 67 157 67q100 0 161 -70q55 -63 55 -151q0 -85 -52 -141q-57 -63 -158 -63q-103 0 -161 65q-54 60 -54 146z" />
<glyph unicode="k" horiz-adv-x="1506" d="M64 0v42q21 2 43 5q33 7 53 25t27.5 43t7.5 62v1332q0 33 -4 46.5t-20 33t-47.5 23.5t-54.5 6v43q81 16 132 29t133 39q113 37 223 89l-9 -210v-1436q0 -37 10.5 -58.5t35.5 -39t76 -24.5q23 -1 45 -2v-48q-80 0 -197 4t-166 4q-63 0 -156 -4t-132 -4zM555 649 q53 51 85 84q39 41 80 86.5t90.5 104.5t52.5 64q23 27 31 42q13 23 13 44q0 26 -38 40q-47 8 -93 17l10 47q38 -5 96 -7.5t103 -2.5h74q47 0 122 4t89 4l31 2q19 5 29 5q8 0 11 -5q5 -11 -6 -23q-1 -1 -11 -10l-428 -409l348 -561q19 -27 41.5 -56t40.5 -43 q26 -20 57.5 -27.5t47.5 -4.5v-44q-61 0 -94 1q-132 5 -154 5q-57 0 -113 -0.5t-114 -5.5q-60 107 -127 218q-58 95 -131 213q-49 76 -70 110q-45 68 -73 108z" />
<glyph unicode="l" horiz-adv-x="743" d="M70 0v44q23 0 40 5t49 26q48 33 47 90v1347q0 32 -8.5 50t-32.5 37q-17 13 -53.5 17.5t-41.5 5.5l4 39q75 11 131 24t141 38q69 20 114 37.5t116 51.5l-20 -268v-1396q0 -38 8 -52t32.5 -27t55.5 -21.5t37 -3.5v-44q-87 8 -160 12t-160 4q-80 0 -138 -3t-161 -13z" />
<glyph unicode="m" horiz-adv-x="2144" d="M55 1074v47q123 14 129 15q64 10 127.5 26.5t105 31.5t113.5 46l-6 -265q26 82 131 150q116 75 248 76q132 0 203 -58q54 -43 108 -157q58 105 152 153.5t224 48.5q166 0 266 -98q97 -94 97 -244v-659q0 -41 8.5 -70.5t36.5 -49.5q18 -14 43.5 -18.5t49.5 -4.5v-44 q-45 0 -120.5 1t-123.5 1q-51 0 -134.5 -1t-119.5 -1l7 319v413q0 98 -21 136q-35 61 -144 61q-84 0 -137 -77q-48 -70 -47 -165v-484q0 -49 6 -74t31 -48t70 -31q24 -5 48 -8v-42q-23 4 -112 5t-108 1h-94h-82.5t-79.5 1q-75 0 -139 -7v42q20 0 37.5 9t36 24.5t25.5 31 t7 45.5v614q0 68 -39.5 114t-105.5 46q-24 0 -44.5 -4.5t-48.5 -19.5q-55 -29 -86.5 -100.5t-31.5 -141.5v-434v-16q0 -31 4 -65t18.5 -56.5t36.5 -31.5q35 -10 59 -15v-42q-62 6 -141 7t-90 1h-82q-60 0 -145.5 -4t-121.5 -4v42q14 -4 26 -4q29 0 56 22q37 27 37 83v825 q0 24 -12 42.5t-33.5 34.5t-49.5 21t-48 8z" />
<glyph unicode="n" horiz-adv-x="1458" d="M70 0v42q8 -4 39.5 6t49.5 25q38 31 38 77v827q0 24 -8.5 45t-27.5 34q-37 21 -75 22q-10 0 -16 -4v50q63 8 115.5 18.5t121.5 26.5t124 34q42 13 119 42l-11 -241q23 66 113 127q109 75 235 76q175 0 282 -89t107 -236v-729q0 -30 6.5 -48.5t25.5 -34.5t46 -20.5 t44 -7.5v-42q-32 6 -100.5 8.5t-156.5 2.5q-53 0 -88 -3q-127 -8 -142 -8l4 93v714q0 53 -37 89q-41 41 -111 41q-29 0 -40 -2t-35 -9q-90 -25 -124 -148q-11 -41 -18 -119v-425v-17q0 -37 5 -72t20.5 -55.5t65.5 -35.5q16 -5 46 -12v-42q-73 0 -124 2q-178 8 -200 9 q-67 0 -112 -3q-160 -8 -181 -8z" />
<glyph unicode="o" horiz-adv-x="1415" d="M63 590q0 261 173 442q178 186 444 187q313 0 500 -179q182 -174 182 -452q0 -263 -195.5 -439t-475.5 -176q-264 0 -446 179.5t-182 437.5zM433 664q0 -56 11 -110q21 -105 43 -165q33 -93 83 -141q61 -58 153 -58h21q8 1 11 1q128 13 189 123q54 96 54 260 q0 178 -75 297q-81 130 -221 130q-26 0 -41 -2q-112 -14 -173 -115q-55 -90 -55 -220z" />
<glyph unicode="p" horiz-adv-x="1500" d="M70 1074v50q47 0 95 10q14 2 166 45q58 16 112.5 36t109.5 42l-3 -200q47 67 143 119q107 56 215 56q270 0 418 -191q129 -167 129 -419q0 -263 -161 -450q-168 -196 -430 -196q-90 0 -183.5 42.5t-119.5 85.5v-313q0 -37 10 -72.5t36 -59.5q45 -42 115 -42v-47 q-56 6 -94 7.5t-97 1.5h-79t-86 -1q-55 0 -142 -4t-143 -4v47q55 0 96 42q25 25 32 52.5t7 74.5v1164q0 36 -10.5 56t-38.5 43q-16 12 -39 17zM556 581q0 -165 48 -261q63 -128 203 -128q138 0 211 131q61 110 61 274q0 167 -53 269q-67 131 -206 132q-131 0 -203 -136 q-61 -116 -61 -281z" />
<glyph unicode="q" horiz-adv-x="1493" d="M66 598q0 270 161 442q172 183 468 183h3q129 0 225 -42t182 -134q14 13 25 25q19 20 36 42t33 43t18 32h70v-1398q0 -49 10.5 -83t41.5 -54q21 -14 54.5 -26t41.5 -6v-52q-67 0 -173.5 5t-174.5 5q-76 0 -147.5 -0.5t-148.5 -9.5v52q67 0 106 39q26 26 33 45.5t7 70.5 v367q-66 -79 -150 -121.5t-190 -42.5q-253 0 -399 191q-132 173 -132 427zM428 603q0 -160 53 -260q66 -125 202 -126q146 0 211 128q50 98 50 266q0 169 -45 263q-62 126 -206 126h-2q-142 0 -209 -129q-54 -103 -54 -268z" />
<glyph unicode="r" horiz-adv-x="1124" d="M66 1078v46q93 10 133 15q69 8 130 25.5t106 33.5t113 44l-11 -238q64 104 152.5 155.5t207.5 51.5q32 0 73.5 -9.5t83.5 -18.5q0 -60 1 -90.5t4 -64.5q0 -49 4.5 -97t10.5 -96h-39q-51 66 -96 86.5t-119 20.5q-144 0 -211 -119q-53 -93 -53 -241v-387q0 -42 10 -71 t39 -51q20 -17 65 -23.5t48 -7.5v-42q-72 0 -178.5 4t-150.5 4q-68 0 -167 -4t-141 -4v44q7 -4 18 -3q17 0 38 7t37.5 21.5t24 37.5t7.5 54v815q0 31 -16 52.5t-44 36.5q-16 7 -40 9.5t-40 3.5z" />
<glyph unicode="s" horiz-adv-x="1158" d="M63 818q0 195 183 309q163 103 398 103h5q95 0 213 -21q87 -16 148 -36q0 -33 2 -97.5t2 -72.5q0 -45 4.5 -84t9.5 -80h-55q-37 99 -141 158t-233 59q-92 0 -150 -31q-69 -37 -69 -108q0 -60 65 -91q30 -14 134 -40l161 -38q208 -50 290 -139q70 -78 70 -212 q0 -203 -185 -321q-160 -103 -383 -103h-4q-134 0 -235 19t-201 66q0 38 -1 59q-5 82 -5 94q0 44 -7 102t-11 95l62 -11q49 -123 156.5 -194.5t245.5 -71.5q92 0 161 41q82 48 83 128q0 69 -77 103q-32 16 -154 42l-130 28q-153 33 -246 115q-106 94 -106 230z" />
<glyph unicode="t" horiz-adv-x="953" d="M62 997v191h133v158q51 17 85 35q26 13 80 48q39 25 78 58q31 27 60 59h52v-358h316v-189h-324v-621q0 -76 44.5 -129.5t123.5 -53.5q47 0 111 22q45 15 76 32q-10 -50 -13.5 -75.5t-3.5 -43.5l-9 -93q-42 -21 -119 -42q-98 -26 -171 -26q-211 0 -309 118 q-82 100 -82 282v628h-128z" />
<glyph unicode="u" horiz-adv-x="1451" d="M62 1074v50q92 10 131 13q67 7 132 22q118 27 241 64l-18 -435v-376q0 -76 33 -123q39 -55 117 -55q99 0 160 72q57 67 57 165v493q0 24 -9 48q-13 32 -34 42.5t-45 14t-42 5.5v50q54 8 108 17q75 13 170 36q60 16 111 30.5t107 32.5l-16 -190v-860q0 -45 8.5 -73.5 t35.5 -48.5q19 -14 50 -21.5t39 -2.5v-44q-53 0 -131 4t-111 4q-45 0 -112 -4t-93 -4l6 234q-45 -107 -148 -183q-112 -83 -240 -83h-3q-220 0 -309 149q-67 112 -67 327l5 507q0 42 -10 61t-37 36q-16 10 -45.5 16.5t-40.5 9.5z" />
<glyph unicode="v" horiz-adv-x="1386" d="M63 1141v44q69 0 118 -2q169 -8 191 -9h27.5h18.5q56 0 130 1.5t137 12.5v-49q-37 0 -67 -8t-46 -33t-16 -51q0 -14 5 -32t11 -38l214 -619l200 641q7 23 9 32q1 6 2 19q0 26 -15.5 48.5t-45.5 30.5q-37 6 -56 10v47q51 0 126 -4t108 -4q32 0 101 4t111 4v-45 q-37 -12 -59 -24.5t-37.5 -40t-27 -64t-22.5 -70.5l-323 -944h-298l-368 1021q-8 29 -17 58q-11 25 -27 37.5t-39.5 17t-44.5 9.5z" />
<glyph unicode="w" horiz-adv-x="1994" d="M66 1142v43q82 -8 150 -11.5t150 -3.5q73 0 126 3t144 12v-44q-26 -6 -43 -11q-31 -10 -41.5 -27.5t-10.5 -36.5q0 -11 6 -30q2 -6 12 -35l219 -619l151 495l-60 163q-4 17 -20 42q-12 19 -27 30q-19 16 -59.5 23t-44.5 8v42q69 0 174.5 -7.5t158.5 -7.5q49 0 178 12 q64 6 110 6v-45h-29q-30 0 -52 -6t-36 -25q-21 -29 -21 -61q0 -14 6 -32l217 -604l150 564q5 19 7 27q7 26 8 43q0 20 -9 38q-12 26 -28.5 37t-54.5 18v48q58 0 83 -1q128 -6 135 -6q41 0 105 3.5t105 3.5v-48q-57 -16 -64 -19q-32 -16 -55 -55q-16 -26 -30 -73 q-12 -47 -23 -93l-266 -902h-239l-231 677l-186 -677h-234l-374 1004q-7 21 -14.5 43t-23.5 40q-24 25 -70.5 39.5t-48.5 15.5z" />
<glyph unicode="x" horiz-adv-x="1436" d="M58 0v42q20 2 33 7.5t35 18t39 29.5q10 10 32 38l326 440l-288 466q-16 25 -19 31q-20 30 -39 43t-43.5 17.5t-48.5 9.5v43q90 -10 145 -12t158 -2q81 0 145.5 4t147.5 11v-44q-17 -1 -41 -4.5t-29.5 -16t-5.5 -19.5q0 -14 8.5 -31t13.5 -22l117 -196l131 206l8 16 q7 14 7 23q0 8 -2 13q-6 17 -32.5 21.5t-47.5 9.5v44q47 -5 112 -6.5t153 -1.5h94h18q66 0 123 8v-44q-32 -6 -42 -8q-30 -7 -52 -18.5t-44.5 -33t-24.5 -27.5l-271 -370l318 -506q17 -33 38 -62t44 -44t47 -22t53 -9v-42q-64 0 -168 6t-169 6q-57 0 -150 -6t-152 -6v42 q19 -4 40.5 1.5t38.5 22.5q12 12 12 28q0 12 -4 23.5t-14 28.5l-153 272l-194 -275q-11 -16 -16.5 -27t-5.5 -25q0 -8 5.5 -23t43 -23t44.5 -3v-42q-58 0 -147 4t-124 4q-36 0 -131 -6q-38 -2 -72 -2z" />
<glyph unicode="y" horiz-adv-x="1409" d="M63 1142v43q55 0 198 -8q82 -5 127 -5q92 0 185.5 5t117.5 11v-47q-39 0 -71.5 -8t-44.5 -27t-12 -37q0 -20 11 -45.5t22 -50.5l214 -599l188 614q4 13 8.5 31.5t4.5 36.5q0 20 -8 36q-13 25 -49 36q-43 10 -62 14v46q42 0 152 -9q63 -5 98 -5q43 0 86 4q116 10 124 10 v-46q-35 0 -58.5 -16t-41 -45.5t-31 -73t-22.5 -69.5l-368 -1053q-51 -152 -160 -248q-115 -101 -252 -101q-44 0 -78.5 12t-80.5 39l-18 347h44q18 -60 51 -90q39 -38 100 -39q82 0 134.5 50t80.5 143l-441 1003q-13 29 -23 49.5t-22 39.5t-42 30t-61 22z" />
<glyph unicode="z" horiz-adv-x="1217" d="M64 0l555 980h-239q-47 0 -78.5 -12t-65.5 -42q-21 -20 -38 -61q-21 -53 -24 -56h-39l52 376h954l-555 -984h192h16q67 0 112 8q84 16 124 56q21 21 35 50q18 49 37 98h50q-5 -29 -19 -109t-18 -112l-24 -192h-1027z" />
<glyph unicode="{" horiz-adv-x="649" d="M61 664l30 12q39 16 56 26q25 16 45 41.5t28.5 48.5t12.5 57l2 26l1 526q0 49 15.5 95t51.5 83q41 43 87 59t112 16h88l-45 -15q-31 -11 -50 -27t-42 -47t-32.5 -73.5t-9.5 -78.5v-480v-36q0 -29 -10 -66q-14 -57 -43 -91q-21 -26 -43.5 -41t-56.5 -27l-34 -11l39 -17 q35 -17 50 -27q23 -16 42.5 -42t28.5 -47.5t9 -52.5v-570q0 -60 9.5 -98.5t42.5 -73.5q21 -26 40.5 -40t49.5 -22l41 -14h-69q-64 0 -117 17q-67 21 -113 68q-35 35 -49 114q-10 55 -10 145v44.5t2 41.5v382v31q0 57 -43 102q-19 20 -46 32t-39 16z" />
<glyph unicode="|" horiz-adv-x="278" d="M60 -341v1995h170v-1995h-170z" />
<glyph unicode="}" horiz-adv-x="649" d="M67 1654h88q68 0 113 -15.5t86 -59.5q35 -37 51 -84t16 -94v-526l3 -26q4 -33 12 -55.5t27 -49.5q20 -24 47 -41q20 -12 56 -27l30 -12l-31 -14q-23 -11 -46 -20q-23 -12 -38 -28q-43 -44 -43 -102v-31v-382v-39.5t1 -41.5q0 -90 -9 -147q-13 -82 -49 -117 q-47 -45 -112 -67q-55 -18 -120 -18h-69l42 14q30 8 49 21.5t40 40.5q32 36 43 74.5t11 97.5v570q0 51 39 101q16 23 40 40q17 12 50 28l39 17l-34 11q-33 12 -56.5 27.5t-44.5 40.5q-26 32 -41 89q-11 41 -11 68v36l1 480q0 36 -9.5 77.5t-33 73.5t-42.5 47.5t-51 27.5z " />
<glyph unicode="~" horiz-adv-x="903" d="M60 1426q49 69 105 111q76 57 160 57q33 0 67.5 -7.5t49.5 -13.5l49 -19q24 -10 57.5 -24.5t68.5 -14.5q38 0 80 26q27 18 50 43l97 -106q-53 -66 -116 -105.5t-110 -39.5q-44 0 -65.5 5.5t-82.5 28.5l-57 22q-42 19 -60 26q-31 13 -59 14q-44 0 -97 -52q-21 -20 -39 -45 z" />
<glyph unicode="&#xa1;" horiz-adv-x="529" d="M70 1085q0 82 52 140q57 64 152 64q93 0 147 -60q49 -55 49 -135q0 -82 -51 -139q-57 -64 -153 -65q-93 0 -147 60q-49 55 -49 135zM111 -360l86 1127h142l101 -1127h-329z" />
<glyph unicode="&#xa2;" horiz-adv-x="1090" d="M67 808q0 203 114 348t318 206v255h171v-231q57 0 87.5 -1.5t76.5 -9.5q27 -5 100 -26q14 -4 29 -8l16 -346h-45q-56 117 -103.5 156.5t-135.5 39.5q-123 0 -208.5 -101t-85.5 -234q0 -179 98 -290t253 -111q74 0 151 30q49 19 122 62l-44 -230q-45 -38 -171 -66 q-17 -4 -58 -8t-78 -8v-229h-169v241q-201 49 -319.5 201t-118.5 360z" />
<glyph unicode="&#xa3;" horiz-adv-x="1426" d="M60 721v197h211q-13 44 -26 93t-13 81q0 233 199 396q191 156 446 157q81 0 196.5 -34t180.5 -80q0 -50 3 -118t3 -85q0 -49 5.5 -92.5t11.5 -88.5h-47q-47 138 -157 216q-100 70 -220 70q-109 0 -175 -44q-82 -54 -82 -162q0 -60 20 -137q26 -85 54 -170h414v-199h-346 v-100q0 -47 -17 -88q-12 -30 -44 -78q-24 -36 -120 -123q-37 -33 -34 -38h599q29 0 68 20t63 53t41.5 85.5t12.5 65.5h56q0 -31 -8 -82q-26 -161 -29 -188q-6 -63 -11 -127t-5 -122h-1119q91 98 144 209q67 138 67 280q0 57 -14 115.5t-29 117.5h-299z" />
<glyph unicode="&#xa5;" horiz-adv-x="1615" d="M54 1567v43q62 0 164.5 -6t166.5 -6q58 0 123 4q150 8 199 8v-41q-1 -4 -42 -5t-53 -18t-12 -35q0 -14 6 -32q1 -4 15 -35l262 -591l246 558q14 33 17 39q7 19 7 37q0 12 -6 28q-12 30 -39 41q-18 7 -70 16v38q51 0 133.5 -3.5t136.5 -3.5q97 0 150.5 3t106.5 12v-44 q-56 -8 -70 -14q-33 -13 -52 -50q-38 -68 -65 -128l-235 -495h375v-161h-438l-69 -127h507v-157h-524v-241q0 -44 7 -73t24 -47.5t56.5 -33t45.5 -10.5v-43q-72 0 -133 4q-181 11 -212 10q-67 0 -112 -2q-160 -8 -181 -8v39q6 -4 35 1.5t49 19.5t31.5 28.5t11.5 35.5v320 h-513v157h503l-56 127h-447v161h377l-256 526q-16 37 -21 54q-12 30 -30 48q-29 27 -48.5 36t-70.5 16z" />
<glyph unicode="&#xa7;" horiz-adv-x="1097" d="M54 635q0 78 53 159q36 54 99 111l27 21l-24 18q-43 30 -70.5 85.5t-27.5 115.5q0 190 122 335q134 160 343 160q61 0 111.5 -6t76.5 -13l137 -43l22 -9l-2 -13l-13 -161l-9 -136v-25l-67 1l-18 186l-8 10q-18 20 -51.5 40t-68.5 32q-79 27 -155 27q-111 0 -188 -56 q-85 -61 -105 -179q-2 -11 -3 -31q0 -103 141 -180q70 -38 184 -72l34 -11l35 -12q16 -6 89.5 -28.5t122.5 -42.5q115 -49 164 -136q39 -71 39 -172q0 -74 -47 -147q-31 -47 -79 -89l-47 -42l11 -7q64 -42 97.5 -100.5t33.5 -143.5q0 -180 -156 -332q-166 -160 -386 -160 q-99 0 -205 31q-88 25 -148 63l-18 10l30 343h66v-120q0 -74 83 -137q74 -56 147 -63q19 -2 43.5 -3.5t46.5 -1.5q162 0 250 67q100 75 100 229q0 64 -47 110q-43 41 -151 86q-73 31 -259 94l-82 28q-172 60 -234 146q-38 54 -38 140q-1 8 -1 24zM204 673q0 -66 93 -123 q69 -43 220 -94q125 -41 250 -81l51 -17l19 29q42 58 53 124q4 17 4 36q0 67 -36 117q-48 68 -151 100l-411 131l-35 -38q-36 -39 -46.5 -78.5t-10.5 -105.5z" />
<glyph unicode="&#xa8;" horiz-adv-x="751" d="M67 1456q0 66 41 102t98 36q55 0 92 -32q42 -37 42 -101q0 -66 -41 -102.5t-98 -36.5q-55 0 -92 33q-42 37 -42 101zM425 1458q0 67 41 103.5t99 36.5q55 0 91 -32q42 -38 42 -102t-42.5 -101.5t-98.5 -37.5q-55 0 -90 32q-42 37 -42 101z" />
<glyph unicode="&#xa9;" horiz-adv-x="1725" d="M49 814q0 214 89 393q95 192 271 302q192 121 454 120q385 0 611 -254q204 -229 204 -561t-203 -560q-225 -254 -612 -254q-384 0 -610 254q-204 229 -204 560zM135 815q0 -296 181 -500q203 -228 547 -228t545 227q183 205 183 501t-182 500q-202 228 -546 228 t-546 -227q-183 -205 -182 -501zM387 819q0 193 123 317q103 105 255 133q49 8 104 8q41 0 80 -4t68 -9q47 -10 97 -22.5t70 -18.5l19 -4l-27 -193h-39v79l-1 13q0 27 -52 55.5t-103 37.5q-18 5 -53.5 8.5t-59.5 3.5q-39 0 -67 -6q-144 -32 -215 -139q-63 -95 -63 -239 q0 -18 0.5 -28.5t4.5 -46.5q18 -149 124 -252t248 -103q94 0 162 18q51 13 108 44l29 16l10 -13l-23 -56l-30 -15q-44 -21 -112 -38q-85 -21 -151 -21q-211 0 -346.5 109t-156.5 297q-4 36 -3 69z" />
<glyph unicode="&#xaa;" horiz-adv-x="747" d="M47 803v93h648v-93h-648zM55 1234q0 87 52 134q43 38 128 52l110 18q30 4 61 7q35 10 34 41q0 10 -1 15q-8 42 -15 52q-23 29 -92 28q-66 0 -119.5 -31.5t-63.5 -79.5h-31l4 23q6 38 8 77t2 70q53 20 97.5 29.5t108.5 9.5q148 0 215.5 -50t67.5 -150v-317q0 -13 7 -29 t20 -27q8 -6 25 -10q5 -1 17 -4v-20q-8 -1 -61 3t-73 4q-33 0 -44 -0.5t-55 -6.5v87q-60 -103 -202 -103q-75 0 -137.5 51.5t-62.5 126.5zM232 1241q0 -33 25 -53t57 -20q50 0 89.5 36t39.5 81l2 78q-50 -11 -95 -23q-92 -24 -105 -50t-13 -49z" />
<glyph unicode="&#xab;" horiz-adv-x="1170" d="M47 526v234l475 352v-231l-337 -241l329 -235v-244zM643 526v234l475 352v-231l-337 -241l330 -235v-244z" />
<glyph unicode="&#xac;" horiz-adv-x="1731" d="M47 569v126h1631v-695h-134v569h-1497z" />
<glyph unicode="&#xad;" d="M64 480l37 332h659q29 0 59 10.5t52 33.5q13 14 22 32t14 38h42l-34 -327h-669q-54 0 -98 -44q-14 -14 -30 -45q-5 -11 -12 -30h-42z" />
<glyph unicode="&#xae;" horiz-adv-x="1736" d="M62 814q0 332 204 561q226 254 611 254q384 0 611 -254q204 -229 204 -561q0 -331 -204 -560q-226 -254 -611 -254q-384 0 -611 254q-204 229 -204 560zM149 815q0 -296 182 -500q202 -228 546 -228t546 227q183 205 182 501q0 296 -181 500q-202 228 -547 228 q-344 0 -545 -227q-183 -205 -183 -501zM501 369v38l36 2q25 0 38 2.5t25 15.5q19 20 19 52v670q0 24 -3 33.5t-14 22.5q-7 11 -39 15.5t-49 4.5h-13v38h22q43 -2 93 -4t68 -2q53 0 114 1t125 4l21 1q81 0 142 -25q79 -32 105 -102q14 -38 14 -75q0 -57 -30 -106t-89 -89 q-25 -16 -70 -31q-4 -1 -50 -15l-11 -4l287 -378q1 -1 14 -10.5t19 -13.5t17 -7.5t17 -3.5h7v-37h-10q-14 0 -42.5 2.5t-31.5 2.5q-35 0 -72 -5l-17 -1l-358 462l6 22l46 -3q91 0 162 49q78 54 78 134q-1 10 -2 14q-6 68 -38 109q-37 47 -107 57q-24 4 -50 4q-33 0 -67 -4.5 t-50 -9.5l-19 -6v-714q0 -19 3 -29.5t14 -23.5t26.5 -15.5t43.5 -2.5l31 -3v-36h-21q-1 0 -60.5 3.5t-96.5 3.5t-95.5 -3.5t-65.5 -3.5h-22z" />
<glyph unicode="&#xb0;" horiz-adv-x="535" d="M55 1417q0 82 51 140q57 64 155 65q100 0 159 -67q54 -61 54 -147q0 -85 -50 -142q-56 -64 -154 -64q-101 0 -161 67q-54 61 -54 148zM168 1409q0 -38 26.5 -64t69.5 -26q42 0 67.5 27t25.5 66t-27 66t-69 27q-38 0 -65.5 -28.5t-27.5 -67.5z" />
<glyph unicode="&#xb1;" horiz-adv-x="1038" d="M57 -2v84h910v-84h-910zM74 668l1 114h396v398h108v-398h396v-114h-401v-398h-103v398h-397z" />
<glyph unicode="&#xb4;" horiz-adv-x="739" d="M53 1371q80 11 136 29t128.5 55.5t118 70.5t101.5 92l130 -156q-63 -51 -114 -82t-122 -60q-94 -39 -160 -53.5t-167 -14.5z" />
<glyph unicode="&#xb5;" horiz-adv-x="1377" d="M19 -384q0 70 19 133q51 168 53 183l3 67v1187h202v-817q0 -100 61 -177t155 -77q95 0 192 75q104 80 104 175v821h196v-923q0 -73 32 -131q37 -66 93 -65q6 0 20 2q38 7 64.5 34.5t39.5 69.5l17 63h44l-16 -72q-18 -88 -107 -152q-81 -57 -160 -57q-13 0 -19 1 q-80 12 -142 76q-67 70 -67 159l-61 -61q-73 -73 -156.5 -120t-145.5 -47q-61 0 -134 33q-88 39 -138 107v-85q0 -68 27 -142q58 -164 58 -246q0 -61 -31 -105q-35 -49 -90 -49q-50 0 -81.5 42t-31.5 98z" />
<glyph unicode="&#xb6;" horiz-adv-x="1397" d="M63 1281q0 64 23 124q47 119 184 178q111 47 252 46h35q107 -6 230.5 -10.5t172.5 -4.5q107 0 181 1.5t167 5.5l30 1v-68h-25q-26 0 -70 -5.5t-72 -16t-42 -35.5q-18 -32 -18 -91v-22v-1509v-31q0 -43 31 -61t69.5 -24.5t69.5 -6.5l44 -1v-65h-40q-107 4 -215 6t-200 2 q-119 0 -237.5 -2.5t-200.5 -5.5h-37v67l55 5h20q37 0 59 4q36 8 56 30q35 38 34 91l-1 937h-26q-57 0 -159 33q-73 24 -154 67q-92 49 -154 150t-62 211zM322 1251q0 -124 75.5 -219t200.5 -119l20 -4v626l-37 2q-110 0 -190 -87q-69 -75 -69 -199zM792 -220h147v1755h-147 v-1755z" />
<glyph unicode="&#xb7;" horiz-adv-x="476" d="M44 813q0 73 43 121q48 55 133 55t134 -56q45 -51 46 -123q0 -74 -43 -123q-48 -54 -134 -54q-85 0 -132 53.5t-47 126.5z" />
<glyph unicode="&#xba;" horiz-adv-x="766" d="M53 1362q0 131 87 223t220 92q158 0 250 -88.5t92 -226.5q0 -132 -97.5 -220.5t-238.5 -88.5q-131 0 -222 90t-91 219zM57 803v93h648v-93h-648zM238 1376q0 -9 4 -32q16 -82 38 -121q36 -62 103 -62q10 1 16 1q63 7 91.5 59.5t28.5 133.5q0 90 -37 148q-42 66 -112 65 q-12 0 -19 -1q-56 -7 -84.5 -55t-28.5 -113v-23z" />
<glyph unicode="&#xbb;" horiz-adv-x="1187" d="M57 881v231l476 -352v-234l-467 -365v244l330 235zM655 881v231l475 -352v-234l-469 -365v244l331 235z" />
<glyph unicode="&#xbf;" horiz-adv-x="1176" d="M53 73q0 138 82 243q74 95 205 153l117 53q101 43 110 47q55 30 85 79q21 37 29.5 71.5t8.5 78.5h75q0 -47 4 -113.5t4 -93.5q0 -63 8.5 -138t14.5 -88q-146 0 -264 -74q-131 -82 -131 -207q0 -14 1 -22q12 -119 77 -184q74 -73 213 -73q142 0 259 102q111 97 133 220h44 l-29 -418q-109 -53 -217.5 -73t-251.5 -20q-236 0 -396 111q-181 125 -181 346zM526 1099q0 95 64 152q57 51 139 51q80 0 134 -48q61 -53 61 -146q0 -95 -64 -152q-57 -51 -139 -51q-80 0 -134 47q-61 54 -61 147z" />
<glyph unicode="&#xc0;" horiz-adv-x="1840" d="M69 -4v47q27 0 44.5 7.5t40.5 26t36 51.5q5 12 14 38l454 1255q7 17 10 28q11 32 11 56q0 8 -1 13q-5 24 -50 43q-14 6 -46 14v43q84 -10 148.5 -14t109.5 -4q55 0 125.5 7.5t102.5 9.5l563 -1439q11 -29 24 -54q18 -33 35.5 -50t38.5 -23.5t50 -6.5v-46q-56 0 -109 2 q-186 8 -222 8q-79 0 -156 -3.5t-170 -6.5v45q11 -5 55 7q25 7 45 19q26 17 26 58q0 29 -12 60l-114 317h-526l-107 -335q-4 -17 -4 -20q-1 -7 -2 -21q0 -30 16.5 -51.5t65.5 -31.5q24 -4 48 -7v-42q-75 4 -150 6.5t-141 2.5q-68 0 -136.5 -3t-116.5 -6zM638 1884l130 156 q51 -55 101 -91t121.5 -73t126.5 -54.5t136 -28.5l-53 -119q-99 0 -164.5 14.5t-160.5 53.5q-125 50 -237 142zM666 703h378q2 10 -63 185q-48 127 -61 168q-7 23 -33 99q-19 56 -38 130q-5 -14 -26 -91t-37 -122q-8 -26 -84 -257q-27 -82 -36 -112z" />
<glyph unicode="&#xc1;" horiz-adv-x="1843" d="M69 -4v47q27 0 44.5 7.5t40.5 26t36 51.5q5 12 14 38l454 1255q7 17 10 28q11 32 11 56q0 8 -1 13q-5 24 -50 43q-14 6 -46 14v43q84 -10 148.5 -14t109.5 -4q55 0 125.5 7.5t102.5 9.5l563 -1439q11 -29 24 -54q18 -33 35.5 -50t38.5 -23.5t50 -6.5v-46q-56 0 -109 2 q-186 8 -222 8q-79 0 -156 -3.5t-170 -6.5v45q11 -5 55 7q25 7 45 19q26 17 26 58q0 29 -12 60l-114 317h-526l-107 -335q-4 -17 -4 -20q-1 -7 -2 -21q0 -30 16.5 -51.5t65.5 -31.5q24 -4 48 -7v-42q-75 4 -150 6.5t-141 2.5q-68 0 -136.5 -3t-116.5 -6zM590 1801 q80 11 136 29t128.5 55.5t118 70.5t101.5 92l130 -156q-63 -51 -114 -82t-122 -60q-94 -39 -160 -53.5t-167 -14.5zM666 703h378q2 10 -63 185q-48 127 -61 168q-7 23 -33 99q-19 56 -38 130q-5 -14 -26 -91t-37 -122q-8 -26 -84 -257q-27 -82 -36 -112z" />
<glyph unicode="&#xc2;" horiz-adv-x="1842" d="M69 -4v47q27 0 44.5 7.5t40.5 26t36 51.5q5 12 14 38l454 1255q7 17 10 28q11 32 11 56q0 8 -1 13q-5 24 -50 43q-14 6 -46 14v43q84 -10 148.5 -14t109.5 -4q55 0 125.5 7.5t102.5 9.5l563 -1439q11 -29 24 -54q18 -33 35.5 -50t38.5 -23.5t50 -6.5v-46q-56 0 -109 2 q-186 8 -222 8q-79 0 -156 -3.5t-170 -6.5v45q11 -5 55 7q25 7 45 19q26 17 26 58q0 29 -12 60l-114 317h-526l-107 -335q-4 -17 -4 -20q-1 -7 -2 -21q0 -30 16.5 -51.5t65.5 -31.5q24 -4 48 -7v-42q-75 4 -150 6.5t-141 2.5q-68 0 -136.5 -3t-116.5 -6zM520 1835 q58 18 101 35t102 43.5t96 46.5q29 16 92 54q32 -23 73.5 -48.5t76.5 -44.5q61 -31 110.5 -51t110.5 -38l-26 -135q-103 12 -204 53q-41 16 -73 33t-70 42q-44 -30 -79 -48t-87 -37.5t-96.5 -31t-85.5 -11.5zM666 703h378q2 10 -63 185q-48 127 -61 168q-7 23 -33 99 q-19 56 -38 130q-5 -14 -26 -91t-37 -122q-8 -26 -84 -257q-27 -82 -36 -112z" />
<glyph unicode="&#xc3;" horiz-adv-x="1836" d="M69 -4v47q27 0 44.5 7.5t40.5 26t36 51.5q5 12 14 38l454 1255q7 17 10 28q11 32 11 56q0 8 -1 13q-5 24 -50 43q-14 6 -46 14v43q84 -10 148.5 -14t109.5 -4q55 0 125.5 7.5t102.5 9.5l563 -1439q11 -29 24 -54q18 -33 35.5 -50t38.5 -23.5t50 -6.5v-46q-56 0 -109 2 q-186 8 -222 8q-79 0 -156 -3.5t-170 -6.5v45q11 -5 55 7q25 7 45 19q26 17 26 58q0 29 -12 60l-114 317h-526l-107 -335q-4 -17 -4 -20q-1 -7 -2 -21q0 -30 16.5 -51.5t65.5 -31.5q24 -4 48 -7v-42q-75 4 -150 6.5t-141 2.5q-68 0 -136.5 -3t-116.5 -6zM499 1788 q49 69 105 111q76 57 160 57q33 0 67.5 -7.5t49.5 -13.5l49 -19q24 -10 57.5 -24.5t68.5 -14.5q38 0 80 26q27 18 50 43l97 -106q-53 -66 -116 -105.5t-110 -39.5q-44 0 -65.5 5.5t-82.5 28.5l-57 22q-42 19 -60 26q-31 13 -59 14q-44 0 -97 -52q-21 -20 -39 -45zM666 703 h378q2 10 -63 185q-48 127 -61 168q-7 23 -33 99q-19 56 -38 130q-5 -14 -26 -91t-37 -122q-8 -26 -84 -257q-27 -82 -36 -112z" />
<glyph unicode="&#xc4;" horiz-adv-x="1834" d="M69 -4v47q27 0 44.5 7.5t40.5 26t36 51.5q5 12 14 38l454 1255q7 17 10 28q11 32 11 56q0 8 -1 13q-5 24 -50 43q-14 6 -46 14v43q84 -10 148.5 -14t109.5 -4q55 0 125.5 7.5t102.5 9.5l563 -1439q11 -29 24 -54q18 -33 35.5 -50t38.5 -23.5t50 -6.5v-46q-56 0 -109 2 q-186 8 -222 8q-79 0 -156 -3.5t-170 -6.5v45q11 -5 55 7q25 7 45 19q26 17 26 58q0 29 -12 60l-114 317h-526l-107 -335q-4 -17 -4 -20q-1 -7 -2 -21q0 -30 16.5 -51.5t65.5 -31.5q24 -4 48 -7v-42q-75 4 -150 6.5t-141 2.5q-68 0 -136.5 -3t-116.5 -6zM589 1814 q0 66 41 102t98 36q55 0 92 -32q42 -37 42 -101q0 -66 -41 -102.5t-98 -36.5q-55 0 -92 33q-42 37 -42 101zM666 703h378q2 10 -63 185q-48 127 -61 168q-7 23 -33 99q-19 56 -38 130q-5 -14 -26 -91t-37 -122q-8 -26 -84 -257q-27 -82 -36 -112zM947 1816q0 67 41 103.5 t99 36.5q55 0 91 -32q42 -38 42 -102t-42.5 -101.5t-98.5 -37.5q-55 0 -90 32q-42 37 -42 101z" />
<glyph unicode="&#xc5;" horiz-adv-x="1837" d="M56 -4v47q27 0 44.5 7.5t40.5 26t36 51.5q5 12 14 38l454 1255q7 17 10 28q11 32 11 56q0 8 -1 13q-5 24 -50 43q-14 6 -46 14v43q84 -10 148.5 -14t109.5 -4q55 0 125.5 7.5t102.5 9.5l563 -1439q11 -29 24 -54q18 -33 35.5 -50t38.5 -23.5t50 -6.5v-46q-56 0 -109 2 q-186 8 -222 8q-79 0 -156 -3.5t-170 -6.5v45q11 -5 55 7q25 7 45 19q26 17 26 58q0 29 -12 60l-114 317h-526l-107 -335q-4 -17 -4 -20q-1 -7 -2 -21q0 -30 16.5 -51.5t65.5 -31.5q24 -4 48 -7v-42q-75 4 -150 6.5t-141 2.5q-68 0 -136.5 -3t-116.5 -6zM653 703h378 q2 10 -63 185q-48 127 -61 168q-7 23 -33 99q-19 56 -38 130q-5 -14 -26 -91t-37 -122q-8 -26 -84 -257q-27 -82 -36 -112zM699 1898q0 82 51 140q57 64 155 65q100 0 159 -67q54 -61 54 -147q0 -85 -50 -142q-56 -64 -154 -64q-101 0 -161 67q-54 61 -54 148zM812 1890 q0 -38 26.5 -64t69.5 -26q42 0 67.5 27t25.5 66t-27 66t-69 27q-38 0 -65.5 -28.5t-27.5 -67.5z" />
<glyph unicode="&#xc6;" horiz-adv-x="2616" d="M44 -4l18 47q26 0 46 7t49.5 27t53.5 51q18 25 28 38l897 1255q14 14 36 51q18 29 20 46q4 24 -36 42q-13 5 -40 13l14 45h1354l8 -158q0 -56 6 -120.5t12 -125.5h-55q-5 30 -8 46q-11 50 -28.5 79.5t-54 45t-75.5 15.5h-617v-440h387q45 0 64 7.5t40 33.5q16 20 21 64 q2 19 1 22h47q1 -2 1 -18q0 -30 -3 -121t-3 -110q0 -60 3.5 -135t4.5 -82h-52q0 47 -34 84q-19 20 -57 31l-36 6h-384v-524h599q51 0 97 17q56 20 83.5 65t44 95t16.5 87h58l-42 -482l-882 2q-117 0 -258 -1t-292 -3l16 45q4 -2 43.5 5.5t67.5 21.5t41 45t13 72l1 317h-530 l-224 -335q-26 -43 -26 -71q0 -12 3 -22q8 -21 54 -31q23 -4 47 -7l-15 -42q-74 4 -149 6.5t-140 2.5q-68 0 -136.5 -3t-117.5 -6zM889 703h392l-2 582q-43 -68 -74.5 -118t-62.5 -95z" />
<glyph unicode="&#xc7;" horiz-adv-x="1527" d="M51 801q0 360 261.5 613t631.5 253q144 0 237.5 -16t207.5 -67l-2 -220q0 -75 3 -120t12 -134h-59q-16 150 -130.5 238t-270.5 88q-211 0 -358.5 -160.5t-147.5 -379.5q0 -279 163.5 -474.5t408.5 -195.5q90 0 199 37q84 29 171 75q65 33 86 53l-33 -272 q-111 -66 -227 -105q-152 -51 -297 -51q-374 0 -617 245q-239 240 -239 593zM705 -353l37 59l18 -13q39 -31 111 -31q30 0 43 6q19 10 19 36q0 37 -47 51q-31 10 -92 10l-21 1l49 147l97 -8l-26 -73h18q69 0 116 -32t47 -85q0 -69 -70 -114q-60 -37 -128 -37q-54 0 -105 28 t-66 55z" />
<glyph unicode="&#xc8;" horiz-adv-x="1539" d="M63 0v42q5 -5 36.5 2t52 23.5t30.5 40t10 45.5v1295q0 26 -6 50q-11 39 -31.5 50.5t-56.5 19.5q-18 4 -35 7v43q85 0 208.5 -4t174.5 -4q246 0 388.5 2t324.5 4t224 2q0 -31 3.5 -80t3.5 -78l18 -246h-53q-5 30 -9 46q-11 49 -28 78q-17 31 -54 46.5t-75 15.5h-617v-440 h385q45 0 64.5 7.5t39.5 33.5q13 18 19.5 48t4.5 38h46q1 -2 2 -18q0 -30 -3 -121t-3 -110q0 -73 2 -140t5 -77h-52q0 47 -34 84q-18 20 -57 31q-13 2 -36 6h-383v-524h598q51 0 96 17q57 21 83 63q63 100 63 184h56l-41 -482l-882 2q-103 0 -266 -1t-216 -1zM433 1901 l130 156q51 -55 101 -91t121.5 -73t126.5 -54.5t136 -28.5l-53 -119q-99 0 -164.5 14.5t-160.5 53.5q-125 50 -237 142z" />
<glyph unicode="&#xc9;" horiz-adv-x="1520" d="M63 0v42q5 -5 36.5 2t52 23.5t30.5 40t10 45.5v1295q0 26 -6 50q-11 39 -31.5 50.5t-56.5 19.5q-18 4 -35 7v43q85 0 208.5 -4t174.5 -4q246 0 388.5 2t324.5 4t224 2q0 -31 3.5 -80t3.5 -78l18 -246h-53q-5 30 -9 46q-11 49 -28 78q-17 31 -54 46.5t-75 15.5h-617v-440 h385q45 0 64.5 7.5t39.5 33.5q13 18 19.5 48t4.5 38h46q1 -2 2 -18q0 -30 -3 -121t-3 -110q0 -73 2 -140t5 -77h-52q0 47 -34 84q-18 20 -57 31q-13 2 -36 6h-383v-524h598q51 0 96 17q57 21 83 63q63 100 63 184h56l-41 -482l-882 2q-103 0 -266 -1t-216 -1zM540 1801 q80 11 136 29t128.5 55.5t118 70.5t101.5 92l130 -156q-63 -51 -114 -82t-122 -60q-94 -39 -160 -53.5t-167 -14.5z" />
<glyph unicode="&#xca;" horiz-adv-x="1546" d="M63 0v42q5 -5 36.5 2t52 23.5t30.5 40t10 45.5v1295q0 26 -6 50q-11 39 -31.5 50.5t-56.5 19.5q-18 4 -35 7v43q85 0 208.5 -4t174.5 -4q246 0 388.5 2t324.5 4t224 2q0 -31 3.5 -80t3.5 -78l18 -246h-53q-5 30 -9 46q-11 49 -28 78q-17 31 -54 46.5t-75 15.5h-617v-440 h385q45 0 64.5 7.5t39.5 33.5q13 18 19.5 48t4.5 38h46q1 -2 2 -18q0 -30 -3 -121t-3 -110q0 -73 2 -140t5 -77h-52q0 47 -34 84q-18 20 -57 31q-13 2 -36 6h-383v-524h598q51 0 96 17q57 21 83 63q63 100 63 184h56l-41 -482l-882 2q-103 0 -266 -1t-216 -1zM448 1816 q58 18 101 35t102 43.5t96 46.5q29 16 92 54q32 -23 73.5 -48.5t76.5 -44.5q61 -31 110.5 -51t110.5 -38l-26 -135q-103 12 -204 53q-41 16 -73 33t-70 42q-44 -30 -79 -48t-87 -37.5t-96.5 -31t-85.5 -11.5z" />
<glyph unicode="&#xcb;" horiz-adv-x="1539" d="M63 0v42q5 -5 36.5 2t52 23.5t30.5 40t10 45.5v1295q0 26 -6 50q-11 39 -31.5 50.5t-56.5 19.5q-18 4 -35 7v43q85 0 208.5 -4t174.5 -4q246 0 388.5 2t324.5 4t224 2q0 -31 3.5 -80t3.5 -78l18 -246h-53q-5 30 -9 46q-11 49 -28 78q-17 31 -54 46.5t-75 15.5h-617v-440 h385q45 0 64.5 7.5t39.5 33.5q13 18 19.5 48t4.5 38h46q1 -2 2 -18q0 -30 -3 -121t-3 -110q0 -73 2 -140t5 -77h-52q0 47 -34 84q-18 20 -57 31q-13 2 -36 6h-383v-524h598q51 0 96 17q57 21 83 63q63 100 63 184h56l-41 -482l-882 2q-103 0 -266 -1t-216 -1zM443 1832 q0 66 41 102t98 36q55 0 92 -32q42 -37 42 -101q0 -66 -41 -102.5t-98 -36.5q-55 0 -92 33q-42 37 -42 101zM801 1834q0 67 41 103.5t99 36.5q55 0 91 -32q42 -38 42 -102t-42.5 -101.5t-98.5 -37.5q-55 0 -90 32q-42 37 -42 101z" />
<glyph unicode="&#xcc;" horiz-adv-x="773" d="M66 0v42q38 4 68 13t41 27.5t15.5 50t4.5 63.5q-1 25 -2 27v1172q1 14 2 30q0 32 -4.5 62t-15 48.5t-40.5 27.5q-35 6 -69 12v43q53 -5 108.5 -7.5t91.5 -2.5h43t48 1h15q31 0 60 -0.5t56 -0.5q60 0 94.5 1t115.5 9v-43q-17 -2 -32 -3q-60 -8 -76 -37q-11 -18 -15.5 -49 t-4.5 -63q1 -25 2 -28v-1172q-1 -14 -2 -30q0 -32 4.5 -62t17 -50.5t56.5 -30.5q25 -5 50 -8v-42q-72 6 -117.5 8.5t-81.5 2.5q-24 0 -51 -0.5t-57 -0.5h-60t-55 1q-81 0 -210 -11zM99 1968l130 156q51 -55 101 -91t121.5 -73t126.5 -54.5t136 -28.5l-53 -119 q-99 0 -164.5 14.5t-160.5 53.5q-125 50 -237 142z" />
<glyph unicode="&#xcd;" horiz-adv-x="769" d="M66 0v42q38 4 68 13t41 27.5t15.5 50t4.5 63.5q-1 25 -2 27v1172q1 14 2 30q0 32 -4.5 62t-15 48.5t-40.5 27.5q-35 6 -69 12v43q53 -5 108.5 -7.5t91.5 -2.5h43t48 1h15q31 0 60 -0.5t56 -0.5q60 0 94.5 1t115.5 9v-43q-17 -2 -32 -3q-60 -8 -76 -37q-11 -18 -15.5 -49 t-4.5 -63q1 -25 2 -28v-1172q-1 -14 -2 -30q0 -32 4.5 -62t17 -50.5t56.5 -30.5q25 -5 50 -8v-42q-72 6 -117.5 8.5t-81.5 2.5q-24 0 -51 -0.5t-57 -0.5h-60t-55 1q-81 0 -210 -11zM82 1877q80 11 136 29t128.5 55.5t118 70.5t101.5 92l130 -156q-63 -51 -114 -82t-122 -60 q-94 -39 -160 -53.5t-167 -14.5z" />
<glyph unicode="&#xce;" horiz-adv-x="773" d="M5 1891q58 18 101 35t102 43.5t96 46.5q29 16 92 54q32 -23 73.5 -48.5t76.5 -44.5q61 -31 110.5 -51t110.5 -38l-26 -135q-103 12 -204 53q-41 16 -73 33t-70 42q-44 -30 -79 -48t-87 -37.5t-96.5 -31t-85.5 -11.5zM66 0v42q38 4 68 13t41 27.5t15.5 50t4.5 63.5 q-1 25 -2 27v1172q1 14 2 30q0 32 -4.5 62t-15 48.5t-40.5 27.5q-35 6 -69 12v43q53 -5 108.5 -7.5t91.5 -2.5h43t48 1h15q31 0 60 -0.5t56 -0.5q60 0 94.5 1t115.5 9v-43q-17 -2 -32 -3q-60 -8 -76 -37q-11 -18 -15.5 -49t-4.5 -63q1 -25 2 -28v-1172q-1 -14 -2 -30 q0 -32 4.5 -62t17 -50.5t56.5 -30.5q25 -5 50 -8v-42q-72 6 -117.5 8.5t-81.5 2.5q-24 0 -51 -0.5t-57 -0.5h-60t-55 1q-81 0 -210 -11z" />
<glyph unicode="&#xcf;" horiz-adv-x="773" d="M66 0v42q38 4 68 13t41 27.5t15.5 50t4.5 63.5q-1 25 -2 27v1172q1 14 2 30q0 32 -4.5 62t-15 48.5t-40.5 27.5q-35 6 -69 12v43q53 -5 108.5 -7.5t91.5 -2.5h43t48 1h15q31 0 60 -0.5t56 -0.5q60 0 94.5 1t115.5 9v-43q-17 -2 -32 -3q-60 -8 -76 -37q-11 -18 -15.5 -49 t-4.5 -63q1 -25 2 -28v-1172q-1 -14 -2 -30q0 -32 4.5 -62t17 -50.5t56.5 -30.5q25 -5 50 -8v-42q-72 6 -117.5 8.5t-81.5 2.5q-24 0 -51 -0.5t-57 -0.5h-60t-55 1q-81 0 -210 -11zM67 1886q0 66 41 102t98 36q55 0 92 -32q42 -37 42 -101q0 -66 -41 -102.5t-98 -36.5 q-55 0 -92 33q-42 37 -42 101zM425 1888q0 67 41 103.5t99 36.5q55 0 91 -32q42 -38 42 -102t-42.5 -101.5t-98.5 -37.5q-55 0 -90 32q-42 37 -42 101z" />
<glyph unicode="&#xd1;" horiz-adv-x="1765" d="M69 0v42q20 0 43 9t44.5 22.5t34.5 36t13 61.5v1289q0 25 -2.5 45.5t-22.5 42.5q-16 16 -45.5 21t-42.5 6v43q57 -11 113.5 -13.5t149.5 -2.5q67 0 144 5t106 11l754 -1088v911q0 19 -16.5 55t-41.5 57q-19 14 -45 18t-53 4h-14v43q18 -2 48 -2.5t49 -0.5q25 0 81.5 1 t90.5 1h35h28h24h21h16h15h13h42t45 1h13v-43q-13 1 -21 2q-30 0 -47.5 -9t-27 -24t-19.5 -46.5t-10 -39.5v-1458h-283q-78 107 -177 252q-82 121 -156 230q-104 155 -178 260q-32 49 -130 190q-85 123 -117 171q-57 86 -113 178v-1094q0 -39 13.5 -66.5t44.5 -46.5 q13 -8 35 -19q31 -16 51 -16q6 0 16 3v-38q-6 -2 -21 -3t-25 -1q-24 0 -102.5 5t-126.5 5zM593 1773q49 69 105 111q76 57 160 57q33 0 67.5 -7.5t49.5 -13.5l49 -19q24 -10 57.5 -24.5t68.5 -14.5q38 0 80 26q27 18 50 43l97 -106q-53 -66 -116 -105.5t-110 -39.5 q-44 0 -65.5 5.5t-82.5 28.5l-57 22q-42 19 -60 26q-31 13 -59 14q-44 0 -97 -52q-21 -20 -39 -45z" />
<glyph unicode="&#xd2;" horiz-adv-x="1861" d="M66 814q0 363 237 606q249 255 648 256q353 0 593 -252.5t240 -611.5q0 -362 -242 -610q-248 -254 -622 -255q-371 0 -616 256q-239 249 -238 611zM455 907q0 -263 131 -481q146 -242 363 -242q202 0 330 168q120 155 120 371q0 274 -123 479q-141 234 -375 234 q-226 0 -344 -165q-103 -142 -102 -364zM595 1978l130 156q51 -55 101 -91t121.5 -73t126.5 -54.5t136 -28.5l-53 -119q-99 0 -164.5 14.5t-160.5 53.5q-125 50 -237 142z" />
<glyph unicode="&#xd3;" horiz-adv-x="1861" d="M66 814q0 363 237 606q249 255 648 256q353 0 593 -252.5t240 -611.5q0 -362 -242 -610q-248 -254 -622 -255q-371 0 -616 256q-239 249 -238 611zM455 907q0 -263 131 -481q146 -242 363 -242q202 0 330 168q120 155 120 371q0 274 -123 479q-141 234 -375 234 q-226 0 -344 -165q-103 -142 -102 -364zM616 1877q80 11 136 29t128.5 55.5t118 70.5t101.5 92l130 -156q-63 -51 -114 -82t-122 -60q-94 -39 -160 -53.5t-167 -14.5z" />
<glyph unicode="&#xd4;" horiz-adv-x="1861" d="M66 814q0 363 237 606q249 255 648 256q353 0 593 -252.5t240 -611.5q0 -362 -242 -610q-248 -254 -622 -255q-371 0 -616 256q-239 249 -238 611zM455 907q0 -263 131 -481q146 -242 363 -242q202 0 330 168q120 155 120 371q0 274 -123 479q-141 234 -375 234 q-226 0 -344 -165q-103 -142 -102 -364zM588 1891q58 18 101 35t102 43.5t96 46.5q29 16 92 54q32 -23 73.5 -48.5t76.5 -44.5q61 -31 110.5 -51t110.5 -38l-26 -135q-103 12 -204 53q-41 16 -73 33t-70 42q-44 -30 -79 -48t-87 -37.5t-96.5 -31t-85.5 -11.5z" />
<glyph unicode="&#xd5;" horiz-adv-x="1840" d="M66 814q0 363 237 606q249 255 648 256q353 0 593 -252.5t240 -611.5q0 -362 -242 -610q-248 -254 -622 -255q-371 0 -616 256q-239 249 -238 611zM455 907q0 -263 131 -481q146 -242 363 -242q202 0 330 168q120 155 120 371q0 274 -123 479q-141 234 -375 234 q-226 0 -344 -165q-103 -142 -102 -364zM559 1846q49 69 105 111q76 57 160 57q33 0 67.5 -7.5t49.5 -13.5l49 -19q24 -10 57.5 -24.5t68.5 -14.5q38 0 80 26q27 18 50 43l97 -106q-53 -66 -116 -105.5t-110 -39.5q-44 0 -65.5 5.5t-82.5 28.5l-57 22q-42 19 -60 26 q-31 13 -59 14q-44 0 -97 -52q-21 -20 -39 -45z" />
<glyph unicode="&#xd6;" horiz-adv-x="1842" d="M66 814q0 363 237 606q249 255 648 256q353 0 593 -252.5t240 -611.5q0 -362 -242 -610q-248 -254 -622 -255q-371 0 -616 256q-239 249 -238 611zM455 907q0 -263 131 -481q146 -242 363 -242q202 0 330 168q120 155 120 371q0 274 -123 479q-141 234 -375 234 q-226 0 -344 -165q-103 -142 -102 -364zM661 1886q0 66 41 102t98 36q55 0 92 -32q42 -37 42 -101q0 -66 -41 -102.5t-98 -36.5q-55 0 -92 33q-42 37 -42 101zM1019 1888q0 67 41 103.5t99 36.5q55 0 91 -32q42 -38 42 -102t-42.5 -101.5t-98.5 -37.5q-55 0 -90 32 q-42 37 -42 101z" />
<glyph unicode="&#xd8;" horiz-adv-x="1841" d="M67 820q0 360 231 603q242 253 622 253q132 0 248 -29.5t214 -91.5l148 204h162l-204 -283q140 -123 218.5 -297t78.5 -367q0 -360 -243 -610q-248 -254 -622 -255q-129 0 -239.5 30.5t-210.5 92.5l-137 -191h-164l195 269q-141 121 -219 297t-78 375zM455 905 q0 -45 3.5 -81t10.5 -85q26 -161 107 -297l623 861q-58 63 -131.5 98t-161.5 35q-27 0 -50.5 -2.5t-54.5 -9.5q-184 -42 -272 -197q-74 -130 -74 -322zM659 331q64 -69 137.5 -107.5t155.5 -38.5q53 0 103 16q167 51 259 201q86 141 86 328q0 39 -4 77q-10 103 -38 200.5 t-77 183.5z" />
<glyph unicode="&#xd9;" horiz-adv-x="1718" d="M57 1575v43q55 0 190 -8q78 -5 119 -5q57 0 169 6.5t156 6.5v-43q-30 -4 -60 -6q-27 -6 -43 -20t-27 -43.5t-11 -55.5v-970q0 -159 93 -231q78 -60 219 -59q144 0 217 65q86 78 86 253v955q0 54 -47 87q-16 12 -40.5 16.5t-47.5 8.5v43q58 0 153.5 -6t155.5 -6 q109 0 196.5 3t109.5 9v-43q-24 -5 -44.5 -9t-34.5 -16.5t-22 -34t-8 -32.5v-975q0 -216 -101 -342q-87 -109 -255 -156q-135 -38 -327 -39q-199 0 -327 37q-166 49 -250 164q-99 135 -99 372v902q0 32 -5 58.5t-24 43.5q-12 11 -35 17q-29 5 -56 10zM547 1892l130 156 q51 -55 101 -91t121.5 -73t126.5 -54.5t136 -28.5l-53 -119q-99 0 -164.5 14.5t-160.5 53.5q-125 50 -237 142z" />
<glyph unicode="&#xda;" horiz-adv-x="1718" d="M57 1575v43q55 0 190 -8q78 -5 119 -5q57 0 169 6.5t156 6.5v-43q-30 -4 -60 -6q-27 -6 -43 -20t-27 -43.5t-11 -55.5v-970q0 -159 93 -231q78 -60 219 -59q144 0 217 65q86 78 86 253v955q0 54 -47 87q-16 12 -40.5 16.5t-47.5 8.5v43q58 0 153.5 -6t155.5 -6 q109 0 196.5 3t109.5 9v-43q-24 -5 -44.5 -9t-34.5 -16.5t-22 -34t-8 -32.5v-975q0 -216 -101 -342q-87 -109 -255 -156q-135 -38 -327 -39q-199 0 -327 37q-166 49 -250 164q-99 135 -99 372v902q0 32 -5 58.5t-24 43.5q-12 11 -35 17q-29 5 -56 10zM549 1801q80 11 136 29 t128.5 55.5t118 70.5t101.5 92l130 -156q-63 -51 -114 -82t-122 -60q-94 -39 -160 -53.5t-167 -14.5z" />
<glyph unicode="&#xdb;" horiz-adv-x="1718" d="M57 1575v43q55 0 190 -8q78 -5 119 -5q57 0 169 6.5t156 6.5v-43q-30 -4 -60 -6q-27 -6 -43 -20t-27 -43.5t-11 -55.5v-970q0 -159 93 -231q78 -60 219 -59q144 0 217 65q86 78 86 253v955q0 54 -47 87q-16 12 -40.5 16.5t-47.5 8.5v43q58 0 153.5 -6t155.5 -6 q109 0 196.5 3t109.5 9v-43q-24 -5 -44.5 -9t-34.5 -16.5t-22 -34t-8 -32.5v-975q0 -216 -101 -342q-87 -109 -255 -156q-135 -38 -327 -39q-199 0 -327 37q-166 49 -250 164q-99 135 -99 372v902q0 32 -5 58.5t-24 43.5q-12 11 -35 17q-29 5 -56 10zM486 1817q58 18 101 35 t102 43.5t96 46.5q29 16 92 54q32 -23 73.5 -48.5t76.5 -44.5q61 -31 110.5 -51t110.5 -38l-26 -135q-103 12 -204 53q-41 16 -73 33t-70 42q-44 -30 -79 -48t-87 -37.5t-96.5 -31t-85.5 -11.5z" />
<glyph unicode="&#xdc;" horiz-adv-x="1715" d="M57 1575v43q55 0 190 -8q78 -5 119 -5q57 0 169 6.5t156 6.5v-43q-30 -4 -60 -6q-27 -6 -43 -20t-27 -43.5t-11 -55.5v-970q0 -159 93 -231q78 -60 219 -59q144 0 217 65q86 78 86 253v955q0 54 -47 87q-16 12 -40.5 16.5t-47.5 8.5v43q58 0 153.5 -6t155.5 -6 q109 0 196.5 3t109.5 9v-43q-24 -5 -44.5 -9t-34.5 -16.5t-22 -34t-8 -32.5v-975q0 -216 -101 -342q-87 -109 -255 -156q-135 -38 -327 -39q-199 0 -327 37q-166 49 -250 164q-99 135 -99 372v902q0 32 -5 58.5t-24 43.5q-12 11 -35 17q-29 5 -56 10zM590 1896q0 66 41 102 t98 36q55 0 92 -32q42 -37 42 -101q0 -66 -41 -102.5t-98 -36.5q-55 0 -92 33q-42 37 -42 101zM948 1898q0 67 41 103.5t99 36.5q55 0 91 -32q42 -38 42 -102t-42.5 -101.5t-98.5 -37.5q-55 0 -90 32q-42 37 -42 101z" />
<glyph unicode="&#xdf;" horiz-adv-x="1240" d="M-54 -372q11 -1 34.5 10t35.5 27q36 38 35 86v1339q0 260 115 398q137 167 445 167q180 0 304 -92q134 -99 134 -256q0 -134 -78.5 -226t-220.5 -133q196 -24 317.5 -148.5t121.5 -305.5q0 -217 -147.5 -369t-354.5 -152q-64 0 -133 14q-37 7 -99 26l-24 205 q36 -24 70 -35t74 -11q119 0 194 104q69 97 69 232q0 147 -73 242q-78 100 -224 121l-53 6q-33 5 -45 14.5t-12 32.5q1 16 14 25t34 13l57 9q99 17 172 96q78 84 77 190q0 98 -49 163q-55 74 -154 74q-105 0 -156 -81q-43 -68 -43 -175v-1465l5 -178q-60 0 -140 4t-88 4 q-45 0 -113 -7t-101 -7v39z" />
<glyph unicode="&#xe0;" horiz-adv-x="1391" d="M51 325q0 173 107 266q87 76 254 105l218 36q61 7 123 15q70 19 71 81q0 13 -4 30q-18 84 -33 104q-45 57 -183 57q-128 0 -237 -64.5t-128 -158.5h-62l7 47q11 74 16 149.5t5 143.5q107 39 184 56q101 21 228 22q295 0 435 -104q131 -98 131 -296v-633q0 -27 13 -60 t41 -53q19 -14 63 -24q7 -1 20 -5v-39q-16 -1 -71 2q-150 11 -196 11q-50 0 -92 -3t-105 -10v174q-60 -101 -163 -153t-242 -52q-148 0 -269 100q-130 107 -131 256zM405 338q0 -67 52 -109q47 -37 111 -37q100 0 179 73t79 162l5 154q-98 -21 -190 -45q-184 -48 -210 -100 t-26 -98zM419 1512l130 156q51 -55 101 -91t121.5 -73t126.5 -54.5t136 -28.5l-53 -119q-99 0 -164.5 14.5t-160.5 53.5q-125 50 -237 142z" />
<glyph unicode="&#xe1;" horiz-adv-x="1384" d="M64 325q0 173 107 266q87 76 254 105l218 36q61 7 123 15q70 19 71 81q0 13 -4 30q-18 84 -33 104q-45 57 -183 57q-128 0 -237 -64.5t-128 -158.5h-62l7 47q11 74 16 149.5t5 143.5q107 39 184 56q101 21 228 22q295 0 435 -104q131 -98 131 -296v-633q0 -27 13 -60 t41 -53q19 -14 63 -24q7 -1 20 -5v-39q-16 -1 -71 2q-150 11 -196 11q-50 0 -92 -3t-105 -10v174q-60 -101 -163 -153t-242 -52q-148 0 -269 100q-130 107 -131 256zM418 338q0 -67 52 -109q47 -37 111 -37q100 0 179 73t79 162l5 154q-98 -21 -190 -45q-184 -48 -210 -100 t-26 -98zM450 1418q80 11 136 29t128.5 55.5t118 70.5t101.5 92l130 -156q-63 -51 -114 -82t-122 -60q-94 -39 -160 -53.5t-167 -14.5z" />
<glyph unicode="&#xe2;" horiz-adv-x="1397" d="M54 325q0 173 107 266q87 76 254 105l218 36q61 7 123 15q70 19 71 81q0 13 -4 30q-18 84 -33 104q-45 57 -183 57q-128 0 -237 -64.5t-128 -158.5h-62l7 47q11 74 16 149.5t5 143.5q107 39 184 56q101 21 228 22q295 0 435 -104q131 -98 131 -296v-633q0 -27 13 -60 t41 -53q19 -14 63 -24q7 -1 20 -5v-39q-16 -1 -71 2q-150 11 -196 11q-50 0 -92 -3t-105 -10v174q-60 -101 -163 -153t-242 -52q-148 0 -269 100q-130 107 -131 256zM349 1436q58 18 101 35t102 43.5t96 46.5q29 16 92 54q32 -23 73.5 -48.5t76.5 -44.5q61 -31 110.5 -51 t110.5 -38l-26 -135q-103 12 -204 53q-41 16 -73 33t-70 42q-44 -30 -79 -48t-87 -37.5t-96.5 -31t-85.5 -11.5zM408 338q0 -67 52 -109q47 -37 111 -37q100 0 179 73t79 162l5 154q-98 -21 -190 -45q-184 -48 -210 -100t-26 -98z" />
<glyph unicode="&#xe3;" horiz-adv-x="1390" d="M51 325q0 173 107 266q87 76 254 105l218 36q61 7 123 15q70 19 71 81q0 13 -4 30q-18 84 -33 104q-45 57 -183 57q-128 0 -237 -64.5t-128 -158.5h-62l7 47q11 74 16 149.5t5 143.5q107 39 184 56q101 21 228 22q295 0 435 -104q131 -98 131 -296v-633q0 -27 13 -60 t41 -53q19 -14 63 -24q7 -1 20 -5v-39q-16 -1 -71 2q-150 11 -196 11q-50 0 -92 -3t-105 -10v174q-60 -101 -163 -153t-242 -52q-148 0 -269 100q-130 107 -131 256zM312 1389q49 69 105 111q76 57 160 57q33 0 67.5 -7.5t49.5 -13.5l49 -19q24 -10 57.5 -24.5t68.5 -14.5 q38 0 80 26q27 18 50 43l97 -106q-53 -66 -116 -105.5t-110 -39.5q-44 0 -65.5 5.5t-82.5 28.5l-57 22q-42 19 -60 26q-31 13 -59 14q-44 0 -97 -52q-21 -20 -39 -45zM405 338q0 -67 52 -109q47 -37 111 -37q100 0 179 73t79 162l5 154q-98 -21 -190 -45q-184 -48 -210 -100 t-26 -98z" />
<glyph unicode="&#xe4;" horiz-adv-x="1392" d="M64 325q0 173 107 266q87 76 254 105l218 36q61 7 123 15q70 19 71 81q0 13 -4 30q-18 84 -33 104q-45 57 -183 57q-128 0 -237 -64.5t-128 -158.5h-62l7 47q11 74 16 149.5t5 143.5q107 39 184 56q101 21 228 22q295 0 435 -104q131 -98 131 -296v-633q0 -27 13 -60 t41 -53q19 -14 63 -24q7 -1 20 -5v-39q-16 -1 -71 2q-150 11 -196 11q-50 0 -92 -3t-105 -10v174q-60 -101 -163 -153t-242 -52q-148 0 -269 100q-130 107 -131 256zM386 1433q0 66 41 102t98 36q55 0 92 -32q42 -37 42 -101q0 -66 -41 -102.5t-98 -36.5q-55 0 -92 33 q-42 37 -42 101zM418 338q0 -67 52 -109q47 -37 111 -37q100 0 179 73t79 162l5 154q-98 -21 -190 -45q-184 -48 -210 -100t-26 -98zM744 1435q0 67 41 103.5t99 36.5q55 0 91 -32q42 -38 42 -102t-42.5 -101.5t-98.5 -37.5q-55 0 -90 32q-42 37 -42 101z" />
<glyph unicode="&#xe5;" horiz-adv-x="1392" d="M64 325q0 173 107 266q87 76 254 105l218 36q61 7 123 15q70 19 71 81q0 13 -4 30q-18 84 -33 104q-45 57 -183 57q-128 0 -237 -64.5t-128 -158.5h-62l7 47q11 74 16 149.5t5 143.5q107 39 184 56q101 21 228 22q295 0 435 -104q131 -98 131 -296v-633q0 -27 13 -60 t41 -53q19 -14 63 -24q7 -1 20 -5v-39q-16 -1 -71 2q-150 11 -196 11q-50 0 -92 -3t-105 -10v174q-60 -101 -163 -153t-242 -52q-148 0 -269 100q-130 107 -131 256zM418 338q0 -67 52 -109q47 -37 111 -37q100 0 179 73t79 162l5 154q-98 -21 -190 -45q-184 -48 -210 -100 t-26 -98zM511 1511q0 82 51 140q57 64 155 65q100 0 159 -67q54 -61 54 -147q0 -85 -50 -142q-56 -64 -154 -64q-101 0 -161 67q-54 61 -54 148zM624 1503q0 -38 26.5 -64t69.5 -26q42 0 67.5 27t25.5 66t-27 66t-69 27q-38 0 -65.5 -28.5t-27.5 -67.5z" />
<glyph unicode="&#xe6;" horiz-adv-x="2081" d="M51 325q0 173 107 266q87 76 254 105l218 36q61 7 123 15q70 19 70 81q0 13 -3 30q-18 84 -34 104q-45 57 -182 57q-128 0 -237 -64.5t-128 -158.5h-62q0 8 3.5 23.5t3.5 23.5q11 74 16 149.5t5 143.5q107 39 184 56q101 21 228 22q166 0 278 -31t182 -93q81 60 177 92 q106 36 226 35q223 0 387 -140q177 -153 176 -393v-117h-833q0 -152 102 -260q111 -118 290 -118q112 0 230 51q58 25 180 99l-46 -247q-100 -61 -200 -93q-121 -39 -247 -40q-90 0 -162 11q-125 18 -212 63q-116 58 -169 163q-58 -117 -226 -178q-136 -49 -299 -49 q-148 0 -270 100q-130 107 -130 256zM405 338q0 -67 52 -109q47 -37 111 -37q100 0 179 73t79 162l5 154q-98 -21 -190 -45q-184 -48 -210 -100t-26 -98zM1208 753h480q0 105 -70 182.5t-172 77.5q-94 0 -161 -82q-57 -70 -77 -178z" />
<glyph unicode="&#xe7;" horiz-adv-x="1393" d="M112 597q0 269 218.5 443t563.5 174q88 0 184 -22q56 -13 143 -41l12 -355h-62q-16 76 -99 137q-90 66 -203 66q-149 0 -252 -112q-98 -107 -98 -254q0 -175 122 -300q127 -129 317 -129q107 0 213 43q28 12 112 53l-55 -245q-101 -49 -189 -65.5t-216 -16.5 q-315 0 -516 183q-195 178 -195 441zM594 -348l37 58l17 -13q39 -31 109 -31q30 0 45.5 7t15.5 35q0 27 -28 41q-33 18 -109 18l-21 1l48 141l94 -8l-25 -69h18q67 0 112 -32t45 -82q0 -69 -68 -111q-56 -35 -123 -34q-53 0 -102.5 26.5t-64.5 52.5z" />
<glyph unicode="&#xe8;" horiz-adv-x="1311" d="M58 584q0 267 165 438q175 181 473 181q223 0 386 -141q177 -153 177 -392v-117h-833q0 -152 102 -261q111 -118 290 -118q112 0 230 52q58 25 180 99l-46 -247q-100 -61 -200 -94q-121 -39 -247 -39q-325 0 -506 184q-171 173 -171 455zM420 1512l130 156 q51 -55 101 -91t121.5 -73t126.5 -54.5t136 -28.5l-53 -119q-99 0 -164.5 14.5t-160.5 53.5q-125 50 -237 142zM424 739h479q0 105 -69.5 182.5t-171.5 77.5q-94 0 -161 -82q-57 -70 -77 -178z" />
<glyph unicode="&#xe9;" horiz-adv-x="1312" d="M58 584q0 267 165 438q175 181 473 181q223 0 386 -141q177 -153 177 -392v-117h-833q0 -152 102 -261q111 -118 290 -118q112 0 230 52q58 25 180 99l-46 -247q-100 -61 -200 -94q-121 -39 -247 -39q-325 0 -506 184q-171 173 -171 455zM424 739h479q0 105 -69.5 182.5 t-171.5 77.5q-94 0 -161 -82q-57 -70 -77 -178zM458 1446q80 11 136 29t128.5 55.5t118 70.5t101.5 92l130 -156q-63 -51 -114 -82t-122 -60q-94 -39 -160 -53.5t-167 -14.5z" />
<glyph unicode="&#xea;" horiz-adv-x="1317" d="M58 584q0 267 165 438q175 181 473 181q223 0 386 -141q177 -153 177 -392v-117h-833q0 -152 102 -261q111 -118 290 -118q112 0 230 52q58 25 180 99l-46 -247q-100 -61 -200 -94q-121 -39 -247 -39q-325 0 -506 184q-171 173 -171 455zM326 1437q58 18 101 35t102 43.5 t96 46.5q29 16 92 54q32 -23 73.5 -48.5t76.5 -44.5q61 -31 110.5 -51t110.5 -38l-26 -135q-103 12 -204 53q-41 16 -73 33t-70 42q-44 -30 -79 -48t-87 -37.5t-96.5 -31t-85.5 -11.5zM424 739h479q0 105 -69.5 182.5t-171.5 77.5q-94 0 -161 -82q-57 -70 -77 -178z" />
<glyph unicode="&#xeb;" horiz-adv-x="1322" d="M58 584q0 267 165 438q175 181 473 181q223 0 386 -141q177 -153 177 -392v-117h-833q0 -152 102 -261q111 -118 290 -118q112 0 230 52q58 25 180 99l-46 -247q-100 -61 -200 -94q-121 -39 -247 -39q-325 0 -506 184q-171 173 -171 455zM396 1449q0 66 41 102t98 36 q55 0 92 -32q42 -37 42 -101q0 -66 -41 -102.5t-98 -36.5q-55 0 -92 33q-42 37 -42 101zM424 739h479q0 105 -69.5 182.5t-171.5 77.5q-94 0 -161 -82q-57 -70 -77 -178zM754 1451q0 67 41 103.5t99 36.5q55 0 91 -32q42 -38 42 -102t-42.5 -101.5t-98.5 -37.5q-55 0 -90 32 q-42 37 -42 101z" />
<glyph unicode="&#xec;" horiz-adv-x="717" d="M8 1559l130 156q51 -55 101 -91.5t121.5 -73.5t126.5 -54t136 -28l-53 -119q-99 0 -164.5 14t-160.5 54q-125 50 -237 142zM64 -2v44q20 2 33 5q37 7 53.5 20.5t29 37.5t12.5 38v825q0 27 -13 48t-39 40q-10 6 -28 11.5t-39 11.5v46q115 17 250 53q45 12 97.5 28.5 t108.5 35.5q7 5 10 6q12 5 18 -1q4 -4 4 -9t-3 -14t-3 -10l-18 -259v-787q0 -13 1 -21q8 -49 37 -74q18 -14 48.5 -25t40.5 -11l2 -43q-50 7 -138.5 13t-169.5 6q-54 0 -124 -5q-160 -11 -170 -10z" />
<glyph unicode="&#xed;" horiz-adv-x="716" d="M37 1419q80 11 136 29t129 55.5t118 70t102 92.5l130 -156q-63 -51 -114 -82.5t-123 -59.5q-94 -39 -159.5 -53.5t-167.5 -14.5zM64 -2v44q20 2 33 5q36 7 52.5 20.5t29 37.5t12.5 38v825q0 29 -12.5 49t-38.5 39q-12 8 -35 13.5t-33 9.5v46q113 17 251 53q43 11 95.5 28 t109.5 36q7 5 10 6q12 5 18 -1q4 -4 4 -11q0 -5 -3 -13t-3 -9l-18 -259v-787q2 -23 5 -36q11 -39 34 -59q17 -14 47.5 -25t39.5 -11l4 -43q-53 7 -140.5 13t-168.5 6q-67 0 -170 -7.5t-123 -7.5z" />
<glyph unicode="&#xee;" horiz-adv-x="718" d="M-37 1444q58 18 101 35.5t102.5 43.5t96.5 46q29 16 91 54q32 -23 73.5 -48.5t77.5 -44.5q61 -31 110.5 -50.5t110.5 -37.5l-27 -135q-103 12 -204 52q-41 16 -73 33t-70 43q-44 -30 -78.5 -48t-86.5 -37.5t-97 -31t-85 -11.5zM63 -2v44q20 2 32 5q36 7 53 20.5 t29.5 37.5t12.5 38v825q0 29 -12.5 49t-39.5 39q-10 6 -28 11.5t-40 11.5v46q117 17 252 53q47 12 98 28.5t108 35.5q7 5 10 6q12 5 18 -1t2.5 -15.5t-5.5 -17.5l-18 -259v-787q2 -23 4 -36q11 -39 35 -59q17 -14 47.5 -25t40.5 -11l3 -43q-53 7 -140.5 13t-168.5 6 q-67 0 -170.5 -7.5t-122.5 -7.5z" />
<glyph unicode="&#xef;" horiz-adv-x="724" d="M4 1442q0 66 41 102t98 36q55 0 92 -32q42 -38 42 -102q0 -66 -41 -102t-99 -36q-55 0 -92 32q-42 37 -41 102zM58 -2v44q20 2 33 5q36 7 52.5 20.5t29 37.5t12.5 38v825q0 29 -12.5 49t-38.5 39q-12 8 -35 13.5t-33 9.5v46q113 17 251 53q43 11 95.5 28t109.5 36 q7 5 10 6q12 5 18 -1q4 -4 4 -11q0 -5 -3 -13t-3 -9l-18 -259v-787q2 -23 5 -36q11 -39 34 -59q17 -14 47.5 -25t39.5 -11l4 -43q-53 7 -140.5 13t-168.5 6q-67 0 -170 -7.5t-123 -7.5zM362 1444q0 67 41 103.5t98 36.5q55 0 92 -32q42 -38 42 -102t-42.5 -102t-98.5 -38 q-55 0 -91 33q-42 37 -41 101z" />
<glyph unicode="&#xf1;" horiz-adv-x="1453" d="M70 0v42q8 -4 39.5 6t49.5 25q38 31 38 77v827q0 24 -8.5 45t-27.5 34q-37 21 -75 22q-10 0 -16 -4v50q63 8 115.5 18.5t121.5 26.5t124 34q42 13 119 42l-11 -241q23 66 113 127q109 75 235 76q175 0 282 -89t107 -236v-729q0 -30 6.5 -48.5t25.5 -34.5t46 -20.5 t44 -7.5v-42q-32 6 -100.5 8.5t-156.5 2.5q-53 0 -88 -3q-127 -8 -142 -8l4 93v714q0 53 -37 89q-41 41 -111 41q-29 0 -40 -2t-35 -9q-90 -25 -124 -148q-11 -41 -18 -119v-425v-17q0 -37 5 -72t20.5 -55.5t65.5 -35.5q16 -5 46 -12v-42q-73 0 -124 2q-178 8 -200 9 q-67 0 -112 -3q-160 -8 -181 -8zM447 1397q49 69 105 111q76 57 160 57q33 0 67.5 -7.5t49.5 -13.5l49 -19q24 -10 57.5 -24.5t68.5 -14.5q38 0 80 26q27 18 50 43l97 -106q-53 -66 -116 -105.5t-110 -39.5q-44 0 -65.5 5.5t-82.5 28.5l-57 22q-42 19 -60 26q-31 13 -59 14 q-44 0 -97 -52q-21 -20 -39 -45z" />
<glyph unicode="&#xf2;" horiz-adv-x="1416" d="M63 590q0 261 173 442q178 186 444 187q313 0 500 -179q182 -174 182 -452q0 -263 -195.5 -439t-475.5 -176q-264 0 -446 179.5t-182 437.5zM433 664q0 -56 11 -110q21 -105 43 -165q33 -93 83 -141q61 -58 153 -58h21q8 1 11 1q128 13 189 123q54 96 54 260 q0 178 -75 297q-81 130 -221 130q-26 0 -41 -2q-112 -14 -173 -115q-55 -90 -55 -220zM470 1512l130 156q51 -55 101 -91t121.5 -73t126.5 -54.5t136 -28.5l-53 -119q-99 0 -164.5 14.5t-160.5 53.5q-125 50 -237 142z" />
<glyph unicode="&#xf3;" horiz-adv-x="1405" d="M36 590q0 261 173 442q178 186 444 187q313 0 500 -179q182 -174 182 -452q0 -263 -195.5 -439t-475.5 -176q-264 0 -446 179.5t-182 437.5zM405 1421q80 11 136 29t128.5 55.5t118 70.5t101.5 92l130 -156q-63 -51 -114 -82t-122 -60q-94 -39 -160 -53.5t-167 -14.5z M406 664q0 -56 11 -110q21 -105 43 -165q33 -93 83 -141q61 -58 153 -58h21q8 1 11 1q128 13 189 123q54 96 54 260q0 178 -75 297q-81 130 -221 130q-26 0 -41 -2q-112 -14 -173 -115q-55 -90 -55 -220z" />
<glyph unicode="&#xf4;" horiz-adv-x="1420" d="M50 590q0 261 173 442q178 186 444 187q313 0 500 -179q182 -174 182 -452q0 -263 -195.5 -439t-475.5 -176q-264 0 -446 179.5t-182 437.5zM327 1437q58 18 101 35t102 43.5t96 46.5q29 16 92 54q32 -23 73.5 -48.5t76.5 -44.5q61 -31 110.5 -51t110.5 -38l-26 -135 q-103 12 -204 53q-41 16 -73 33t-70 42q-44 -30 -79 -48t-87 -37.5t-96.5 -31t-85.5 -11.5zM420 664q0 -56 11 -110q21 -105 43 -165q33 -93 83 -141q61 -58 153 -58h21q8 1 11 1q128 13 189 123q54 96 54 260q0 178 -75 297q-81 130 -221 130q-26 0 -41 -2 q-112 -14 -173 -115q-55 -90 -55 -220z" />
<glyph unicode="&#xf5;" horiz-adv-x="1414" d="M63 590q0 261 173 442q178 186 444 187q313 0 500 -179q182 -174 182 -452q0 -263 -195.5 -439t-475.5 -176q-264 0 -446 179.5t-182 437.5zM368 1389q49 69 105 111q76 57 160 57q33 0 67.5 -7.5t49.5 -13.5l49 -19q24 -10 57.5 -24.5t68.5 -14.5q38 0 80 26 q27 18 50 43l97 -106q-53 -66 -116 -105.5t-110 -39.5q-44 0 -65.5 5.5t-82.5 28.5l-57 22q-42 19 -60 26q-31 13 -59 14q-44 0 -97 -52q-21 -20 -39 -45zM433 664q0 -56 11 -110q21 -105 43 -165q33 -93 83 -141q61 -58 153 -58h21q8 1 11 1q128 13 189 123q54 96 54 260 q0 178 -75 297q-81 130 -221 130q-26 0 -41 -2q-112 -14 -173 -115q-55 -90 -55 -220z" />
<glyph unicode="&#xf6;" horiz-adv-x="1425" d="M63 590q0 261 173 442q178 186 444 187q313 0 500 -179q182 -174 182 -452q0 -263 -195.5 -439t-475.5 -176q-264 0 -446 179.5t-182 437.5zM421 1431q0 66 41 102t98 36q55 0 92 -32q42 -37 42 -101q0 -66 -41 -102.5t-98 -36.5q-55 0 -92 33q-42 37 -42 101zM433 664 q0 -56 11 -110q21 -105 43 -165q33 -93 83 -141q61 -58 153 -58h21q8 1 11 1q128 13 189 123q54 96 54 260q0 178 -75 297q-81 130 -221 130q-26 0 -41 -2q-112 -14 -173 -115q-55 -90 -55 -220zM779 1433q0 67 41 103.5t99 36.5q55 0 91 -32q42 -38 42 -102t-42.5 -101.5 t-98.5 -37.5q-55 0 -90 32q-42 37 -42 101z" />
<glyph unicode="&#xf7;" horiz-adv-x="1501" d="M63 759h1385l1 -156h-1385zM594 1045q0 60 37 102q42 47 111 46q72 0 113 -45q37 -41 37 -103q0 -60 -37 -101q-43 -47 -113 -47t-109 43t-39 105zM596 320q0 61 35 101q41 47 111 47t111 -46q37 -42 37 -102q0 -61 -35 -102q-41 -46 -113 -46q-69 0 -107.5 43.5 t-38.5 104.5z" />
<glyph unicode="&#xf8;" horiz-adv-x="1416" d="M63 590q0 261 173 442q178 186 444 187q117 0 205 -16.5t164 -57.5l121 175h120l-157 -229q110 -86 169.5 -218.5t59.5 -284.5q0 -263 -195.5 -439t-475.5 -176q-158 0 -284 63l-125 -182h-122l161 233q-119 86 -188.5 218t-69.5 285zM433 664q0 -56 12 -116.5t22 -95.5 q16 -55 35 -101l386 561q-36 43 -82.5 66t-106.5 23q-10 0 -21 -1t-17 -1q-112 -14 -173 -115q-55 -90 -55 -220zM560 259q31 -33 71.5 -51t92.5 -18h20q8 1 11 1q128 13 189 123q54 96 54 260q0 66 -14 125t-40 119z" />
<glyph unicode="&#xf9;" horiz-adv-x="1460" d="M62 1074v50q92 10 131 13q67 7 132 22q118 27 241 64l-18 -435v-376q0 -76 33 -123q39 -55 117 -55q99 0 160 72q57 67 57 165v493q0 24 -9 48q-13 32 -34 42.5t-45 14t-42 5.5v50q54 8 108 17q75 13 170 36q60 16 111 30.5t107 32.5l-16 -190v-860q0 -45 8.5 -73.5 t35.5 -48.5q19 -14 50 -21.5t39 -2.5v-44q-53 0 -131 4t-111 4q-45 0 -112 -4t-93 -4l6 234q-45 -107 -148 -183q-113 -84 -243 -83q-220 0 -309 149q-67 112 -67 327l5 507q0 42 -10 61t-37 36q-16 10 -45.5 16.5t-40.5 9.5zM503 1509l130 156q51 -55 101 -91t121.5 -73 t126.5 -54.5t136 -28.5l-53 -119q-99 0 -164.5 14.5t-160.5 53.5q-125 50 -237 142z" />
<glyph unicode="&#xfa;" horiz-adv-x="1451" d="M62 1074v50q92 10 131 13q67 7 132 22q118 27 241 64l-18 -435v-376q0 -76 33 -123q39 -55 117 -55q99 0 160 72q57 67 57 165v493q0 24 -9 48q-13 32 -34 42.5t-45 14t-42 5.5v50q54 8 108 17q75 13 170 36q60 16 111 30.5t107 32.5l-16 -190v-860q0 -45 8.5 -73.5 t35.5 -48.5q19 -14 50 -21.5t39 -2.5v-44q-53 0 -131 4t-111 4q-45 0 -112 -4t-93 -4l6 234q-45 -107 -148 -183q-113 -84 -243 -83q-220 0 -309 149q-67 112 -67 327l5 507q0 42 -10 61t-37 36q-16 10 -45.5 16.5t-40.5 9.5zM546 1420q80 11 136 29t128.5 55.5t118 70.5 t101.5 92l130 -156q-63 -51 -114 -82t-122 -60q-94 -39 -160 -53.5t-167 -14.5z" />
<glyph unicode="&#xfb;" horiz-adv-x="1460" d="M62 1074v50q92 10 131 13q67 7 132 22q118 27 241 64l-18 -435v-376q0 -76 33 -123q39 -55 117 -55q99 0 160 72q57 67 57 165v493q0 24 -9 48q-13 32 -34 42.5t-45 14t-42 5.5v50q54 8 108 17q75 13 170 36q60 16 111 30.5t107 32.5l-16 -190v-860q0 -45 8.5 -73.5 t35.5 -48.5q19 -14 50 -21.5t39 -2.5v-44q-53 0 -131 4t-111 4q-45 0 -112 -4t-93 -4l6 234q-45 -107 -148 -183q-113 -84 -243 -83q-220 0 -309 149q-67 112 -67 327l5 507q0 42 -10 61t-37 36q-16 10 -45.5 16.5t-40.5 9.5zM389 1437q58 18 101 35t102 43.5t96 46.5 q29 16 92 54q32 -23 73.5 -48.5t76.5 -44.5q61 -31 110.5 -51t110.5 -38l-26 -135q-103 12 -204 53q-41 16 -73 33t-70 42q-44 -30 -79 -48t-87 -37.5t-96.5 -31t-85.5 -11.5z" />
<glyph unicode="&#xfc;" horiz-adv-x="1463" d="M62 1074v50q92 10 131 13q67 7 132 22q118 27 241 64l-18 -435v-376q0 -76 33 -123q39 -55 117 -55q99 0 160 72q57 67 57 165v493q0 24 -9 48q-13 32 -34 42.5t-45 14t-42 5.5v50q54 8 108 17q75 13 170 36q60 16 111 30.5t107 32.5l-16 -190v-860q0 -45 8.5 -73.5 t35.5 -48.5q19 -14 50 -21.5t39 -2.5v-44q-53 0 -131 4t-111 4q-45 0 -112 -4t-93 -4l6 234q-45 -107 -148 -183q-113 -84 -243 -83q-220 0 -309 149q-67 112 -67 327l5 507q0 42 -10 61t-37 36q-16 10 -45.5 16.5t-40.5 9.5zM476 1431q0 66 41 102t98 36q55 0 92 -32 q42 -37 42 -101q0 -66 -41 -102.5t-98 -36.5q-55 0 -92 33q-42 37 -42 101zM834 1433q0 67 41 103.5t99 36.5q55 0 91 -32q42 -38 42 -102t-42.5 -101.5t-98.5 -37.5q-55 0 -90 32q-42 37 -42 101z" />
<glyph unicode="&#xfd;" horiz-adv-x="0" />
<glyph unicode="&#xff;" horiz-adv-x="1398" d="M50 1142v43q55 0 198 -8q82 -5 127 -5q92 0 185.5 5t117.5 11v-47q-39 0 -71.5 -8t-44.5 -27t-12 -37q0 -20 11 -45.5t22 -50.5l214 -599l188 614q4 13 8.5 31.5t4.5 36.5q0 20 -8 36q-13 25 -49 36q-43 10 -62 14v46q42 0 152 -9q63 -5 98 -5q43 0 86 4q116 10 124 10 v-46q-35 0 -58.5 -16t-41 -45.5t-31 -73t-22.5 -69.5l-368 -1053q-51 -152 -160 -248q-115 -101 -252 -101q-44 0 -78.5 12t-80.5 39l-18 347h44q18 -60 51 -90q39 -38 100 -39q82 0 134.5 50t80.5 143l-441 1003q-13 29 -23 49.5t-22 39.5t-42 30t-61 22zM469 1435 q0 66 41 102t98 36q55 0 92 -32q42 -37 42 -101q0 -66 -41 -102.5t-98 -36.5q-55 0 -92 33q-42 37 -42 101zM827 1437q0 67 41 103.5t99 36.5q55 0 91 -32q42 -38 42 -102t-42.5 -101.5t-98.5 -37.5q-55 0 -90 32q-42 37 -42 101z" />
<glyph unicode="&#x152;" horiz-adv-x="2549" d="M66 820q0 360 231 603q242 253 622 253q112 0 179.5 -11t163.5 -47q103 0 213 -4t159 -4q223 0 327 2t232 4t178 2q0 -31 4 -80t4 -78l17 -246h-53q-5 30 -9 46q-11 49 -28 78q-17 31 -54 46.5t-75 15.5h-617v-440h385q45 0 64.5 7.5t39.5 33.5q14 17 20 48t4 38h47 q1 -2 1 -18q0 -30 -3 -121t-3 -110q0 -73 2.5 -140t4.5 -77h-51q0 47 -35 84q-18 20 -57 31q-13 2 -36 6h-383v-524h598q51 0 96 17q57 21 83 63q63 100 63 184h56l-40 -482l-674 2q-115 0 -242.5 -0.5t-266.5 -1.5q-55 -25 -142.5 -39t-171.5 -14q-371 0 -616 259 q-238 251 -237 614zM454 905q0 -45 3.5 -81t10.5 -85q35 -218 165 -380q141 -174 318 -174q53 0 103 16q132 41 184 110q28 40 28 84v738q0 79 -84 176q-110 127 -277 127q-27 0 -50.5 -2.5t-54.5 -9.5q-184 -41 -272 -196q-74 -130 -74 -323z" />
<glyph unicode="&#x153;" horiz-adv-x="2254" d="M63 590q0 261 173 442q178 186 444 187q168 0 299.5 -47.5t219.5 -141.5q84 80 195 124q122 49 263 49q223 0 386 -141q177 -153 177 -392v-117h-833q0 -152 101 -261q111 -118 290 -118q112 0 231 52q58 25 180 99l-47 -247q-100 -61 -199 -94q-121 -39 -247 -39 q-173 0 -307.5 55t-221.5 153q-93 -86 -215.5 -133t-260.5 -47q-264 0 -446 179.5t-182 437.5zM433 664q0 -56 11 -110q21 -105 43 -165q33 -93 83 -141q61 -58 153 -58h21q8 1 11 1q128 13 189 123q54 96 54 260q0 178 -75 297q-81 130 -221 130q-26 0 -41 -2 q-112 -14 -173 -115q-55 -90 -55 -220zM1384 739h480q0 105 -69.5 182.5t-171.5 77.5q-94 0 -161 -82q-57 -70 -78 -178z" />
<glyph unicode="&#x178;" horiz-adv-x="1642" d="M60 1575v43q58 0 204 -8q84 -5 127 -5q57 0 168.5 6.5t154.5 6.5v-43q-1 -5 -23 -4q-31 0 -47.5 -2.5t-27 -17t-10.5 -31.5t10 -40q4 -10 12 -28l261 -599l226 509q21 51 22 55q14 39 15 66q0 18 -7 35q-13 29 -35.5 39.5t-67.5 17.5v43q63 -6 134 -9.5t139 -3.5 q54 0 124.5 1.5t132.5 11.5v-43q-32 -7 -57 -21q-35 -19 -57 -48q-30 -39 -38 -54q-13 -23 -36 -70l-380 -821v-338q-1 -14 -1 -30q0 -32 4 -62t16.5 -50.5t56.5 -30.5q25 -5 50 -8v-42q-72 6 -117.5 8.5t-81.5 2.5q-24 0 -51 -0.5t-57 -0.5h-60t-55 1q-81 0 -210 -11v42 q38 4 68 13t41 27.5t15.5 50t4.5 63.5q-1 25 -2 27v347l-395 851q-14 36 -22 54q-16 35 -37 54q-29 25 -45 32t-66 14zM552 1809q0 66 41 102t98 36q55 0 92 -32q42 -37 42 -101q0 -66 -41 -102.5t-98 -36.5q-55 0 -92 33q-42 37 -42 101zM910 1811q0 67 41 103.5t99 36.5 q55 0 91 -32q42 -38 42 -102t-42.5 -101.5t-98.5 -37.5q-55 0 -90 32q-42 37 -42 101z" />
<glyph unicode="&#x2000;" horiz-adv-x="1067" />
<glyph unicode="&#x2001;" horiz-adv-x="2134" />
<glyph unicode="&#x2002;" horiz-adv-x="1067" />
<glyph unicode="&#x2003;" horiz-adv-x="2134" />
<glyph unicode="&#x2004;" horiz-adv-x="711" />
<glyph unicode="&#x2005;" horiz-adv-x="533" />
<glyph unicode="&#x2006;" horiz-adv-x="355" />
<glyph unicode="&#x2007;" horiz-adv-x="355" />
<glyph unicode="&#x2008;" horiz-adv-x="266" />
<glyph unicode="&#x2009;" horiz-adv-x="426" />
<glyph unicode="&#x200a;" horiz-adv-x="118" />
<glyph unicode="&#x2010;" d="M64 480l37 332h659q29 0 59 10.5t52 33.5q13 14 22 32t14 38h42l-34 -327h-669q-54 0 -98 -44q-14 -14 -30 -45q-5 -11 -12 -30h-42z" />
<glyph unicode="&#x2011;" d="M64 480l37 332h659q29 0 59 10.5t52 33.5q13 14 22 32t14 38h42l-34 -327h-669q-54 0 -98 -44q-14 -14 -30 -45q-5 -11 -12 -30h-42z" />
<glyph unicode="&#x2012;" d="M64 480l37 332h659q29 0 59 10.5t52 33.5q13 14 22 32t14 38h42l-34 -327h-669q-54 0 -98 -44q-14 -14 -30 -45q-5 -11 -12 -30h-42z" />
<glyph unicode="&#x2013;" horiz-adv-x="1200" d="M53 480l37 333h754h39q56 0 92 7q56 11 90 42q19 17 33 36t18 34h42l-34 -333h-890q-54 0 -98 -44q-14 -14 -30 -45q-5 -11 -12 -30h-41z" />
<glyph unicode="&#x2014;" horiz-adv-x="1793" d="M53 475l35 338h1456q27 0 59 10.5t54 33.5q13 16 22 35q6 12 13 38h42l-29 -331h-1471q-55 0 -99 -46q-14 -14 -29 -48q-7 -16 -13 -30h-40z" />
<glyph unicode="&#x2018;" horiz-adv-x="465" d="M62 1552q0 32 4 66h266q-11 -45 -11 -112q0 -79 11.5 -166.5t20.5 -122.5q6 -23 18 -51q8 -20 17 -33l11 -18q5 -7 6.5 -19.5t-2.5 -13.5q-13 -4 -23 -3q-12 0 -24 5q-4 1 -16 8l-36 19q-86 45 -161 168q-43 69 -62 134.5t-19 138.5z" />
<glyph unicode="&#x2019;" horiz-adv-x="448" d="M54.5 1096.5q3.5 12.5 7.5 18.5l11 18q4 6 17.5 37t16.5 47q10 36 21.5 124t11.5 168q0 64 -11 109h266q4 -35 4 -68q0 -70 -20 -136.5t-62 -134.5q-36 -58 -77.5 -102t-83.5 -66l-35 -19q-13 -7 -16 -8q-12 -5 -25 -5q-10 0 -23 3q-6 2 -2.5 14.5z" />
<glyph unicode="&#x201a;" horiz-adv-x="448" d="M54.5 -316.5q3.5 12.5 7.5 18.5l11 18q4 6 17.5 37t16.5 47q10 36 21.5 124t11.5 167q0 64 -11 110h266q4 -35 4 -68q0 -70 -20 -136.5t-62 -134.5q-36 -58 -77.5 -102t-83.5 -66l-35 -19q-13 -7 -16 -8q-12 -5 -25 -5q-10 0 -23 3q-6 2 -2.5 14.5z" />
<glyph unicode="&#x201c;" horiz-adv-x="803" d="M56 1553q0 31 4 65h266q-6 -21 -8.5 -51.5t-2.5 -65.5q0 -82 10 -163.5t21 -120.5q6 -24 18 -51q8 -17 17 -33l10 -18q6 -6 8 -19t-3 -14q-13 -4 -22 -3q-12 0 -24 5q-4 1 -16 8l-36 19q-39 20 -83 65.5t-79 102.5q-42 69 -61 136t-19 138zM390 1553q0 31 4 65h266 q-6 -21 -8.5 -51.5t-2.5 -65.5q0 -82 10.5 -163.5t20.5 -120.5q6 -24 18 -51q8 -17 17 -33l11 -18q6 -6 7.5 -19t-3.5 -14q-13 -4 -22 -3q-12 0 -24 5q-4 1 -16 8l-35 19q-39 20 -83.5 65.5t-79.5 102.5q-42 69 -61 136t-19 138z" />
<glyph unicode="&#x201d;" horiz-adv-x="788" d="M54.5 1096.5q3.5 12.5 7.5 18.5l11 18q4 6 17.5 37t16.5 47q10 36 21.5 124t11.5 168q0 64 -11 109h266q4 -35 4 -68q0 -70 -20 -136.5t-62 -134.5q-36 -58 -77.5 -102t-83.5 -66l-35 -19q-13 -7 -16 -8q-12 -5 -25 -5q-10 0 -23 3q-6 2 -2.5 14.5zM389 1096.5 q4 12.5 7 18.5l11 18q4 6 17.5 37t17.5 47q10 36 21 124t11 168q0 64 -11 109h266q4 -35 4 -68q0 -70 -20 -136.5t-61 -134.5q-36 -58 -78 -102t-83 -66l-36 -19q-13 -7 -16 -8q-12 -5 -25 -5q-10 0 -23 3q-6 2 -2 14.5z" />
<glyph unicode="&#x201e;" horiz-adv-x="788" d="M54.5 -297q3.5 12 7.5 18l11 18q4 6 17.5 37t16.5 47q10 36 21.5 124t11.5 168q0 64 -11 109h266q4 -35 4 -68q0 -70 -20 -136.5t-62 -134.5q-36 -58 -77.5 -102t-83.5 -66l-35 -19q-13 -7 -16 -8q-12 -5 -25 -5q-10 0 -23 4q-6 2 -2.5 14zM389 -297q4 12 7 18l11 18 q4 6 17.5 37t17.5 47q10 36 21 124t11 168q0 64 -11 109h266q4 -35 4 -68q0 -70 -20 -136.5t-61 -134.5q-36 -58 -78 -102t-83 -66l-36 -19q-13 -7 -16 -8q-12 -5 -25 -5q-10 0 -23 4q-6 2 -2 14z" />
<glyph unicode="&#x2022;" horiz-adv-x="565" d="M58 734q0 104 70 166q62 55 152 55t152 -55q69 -61 69 -166q0 -104 -69 -166q-63 -56 -152 -56q-91 0 -152 55q-69 61 -70 167z" />
<glyph unicode="&#x2026;" horiz-adv-x="1699" d="M50 168q0 73 43 122q48 55 133 55t135 -56q45 -51 45 -123q0 -74 -43 -123q-48 -55 -134 -55q-85 0 -132 53.5t-47 126.5zM659 161q0 73 43 122q48 55 133 55t135 -56q45 -51 45 -123q0 -74 -43 -123q-48 -55 -134 -55q-85 0 -132 53.5t-47 126.5zM1284 161q0 73 43 122 q48 55 133 55t135 -56q45 -51 45 -123q0 -74 -43 -123q-48 -55 -134 -55q-85 0 -132 53.5t-47 126.5z" />
<glyph unicode="&#x202f;" horiz-adv-x="426" />
<glyph unicode="&#x205f;" horiz-adv-x="533" />
<glyph unicode="&#x2122;" horiz-adv-x="1861" d="M53 1620h19q6 -1 133.5 -3t176.5 -2l307 5l21 2l-8 -190h-34l-8 74q-2 26 -13.5 38.5t-30.5 12.5l-180 3v-645q0 -18 1.5 -26t10.5 -19.5t24.5 -14t39.5 -2.5l26 -3v-32h-16q-8 0 -66.5 2.5t-75.5 2.5q-39 0 -77 -2t-68 -3h-19v34l32 3q21 0 34 2t24 13q18 18 17 45v645 l-180 -6q-18 0 -22 -7q-10 -8 -15 -32l-12 -84h-34zM752 818v34l33 3q21 0 34 2t24 13q17 17 16 45v602q0 24 -2 31q-2 6 -12 18t-34.5 15t-45.5 3h-13v34h20q4 0 35.5 -3t42.5 -3q30 0 59.5 2t52.5 4h12l302 -639l118 244q57 116 78 157q32 64 63 136q6 13 15.5 37.5 t16.5 44.5l7 20h18q7 0 46 -3t51 -3q26 0 46.5 2t45.5 4h14v-34h-17q-19 0 -44.5 -3.5t-34 -14t-11.5 -20t-3 -29.5v-602q0 -14 3 -24.5t13 -21.5t25 -13.5t38 -2.5l27 -3v-32h-17q-8 0 -66.5 2.5t-76.5 2.5q-39 0 -76.5 -2t-67.5 -3h-19v34l32 3q21 0 34 2t26.5 16t13.5 42 v560l-315 -671h-23l-315 669v-558q0 -17 3 -25.5t12.5 -20t33.5 -14t30 -2.5l28 -3v-32h-18q-10 0 -66.5 2.5t-74.5 2.5q-25 0 -50 -2t-47 -3h-20z" />
<glyph unicode="&#x25fc;" horiz-adv-x="1187" d="M0 0v1188h1188v-1188h-1188z" />
</font>
</defs>
</svg>
